# Blender 4.2.2 LTS
# www.blender.org
mtllib chair1.mtl
o chair1
v 1.100000 2.500000 1.299997
v -1.100000 0.000000 1.299997
v 1.300000 0.000000 -1.300003
v 1.300000 0.000000 1.099997
v 1.500000 2.700000 -1.500003
v 1.300000 2.500000 -1.100003
v 1.300000 2.500000 1.299997
v 1.500000 2.500000 -1.500003
v 1.100000 0.000000 -1.100003
v 1.300000 0.000000 1.299997
v -1.300000 0.000000 1.299997
v 1.300000 0.000000 -1.100003
v -1.300000 0.000000 -1.100003
v 1.500000 2.500000 1.499997
v -1.100000 0.000000 -1.300003
v -1.100000 0.000000 1.099997
v -1.300000 0.000000 -1.300003
v -1.300000 0.000000 1.099997
v 1.100000 2.500000 -1.300003
v 1.300000 2.500000 1.099997
v -1.300000 2.500000 1.099997
v 1.300000 2.500000 -1.300003
v 1.100000 0.000000 1.299997
v 1.100000 0.000000 -1.300003
v 1.100000 0.000000 1.099997
v -1.100000 0.000000 -1.100003
v -1.300000 2.500000 1.299997
v -1.100000 2.500000 1.099997
v 1.100000 2.500000 1.099997
v -1.100000 2.500000 1.299997
v -1.500000 2.500000 1.499997
v -1.500000 2.500000 -1.500003
v -1.300000 2.500000 -1.300003
v -1.100000 2.500000 -1.300003
v 1.100000 2.500000 -1.100003
v -1.300000 2.500000 -1.100003
v -1.100000 2.500000 -1.100003
v 1.500000 2.700000 1.499997
v -1.500000 2.700000 -1.500003
v -1.500000 2.700000 1.499997
vn 1.0000 -0.0000 -0.0000
vn -0.0000 -1.0000 -0.0000
vn -0.0000 -0.0000 1.0000
vn -0.0000 -0.0000 -1.0000
vn -1.0000 -0.0000 -0.0000
vn -0.0000 1.0000 -0.0000
vt 0.852459 0.540983
vt 0.885246 0.131147
vt 0.885246 0.540983
vt 0.590164 0.573770
vt 0.622951 0.540983
vt 0.590164 0.540983
vt 0.557377 0.540983
vt 0.590164 0.131147
vt 0.590164 0.606557
vt 0.557377 0.573770
vt 0.557377 0.606557
vt 0.622951 0.573770
vt 0.491803 0.065574
vt 0.983607 0.098361
vt 0.491803 0.098361
vt 0.950819 0.540983
vt 0.918033 0.131147
vt 0.950819 0.131147
vt 0.622951 0.540983
vt 0.688525 0.131147
vt 0.721311 0.540983
vt 0.721311 0.131147
vt 0.819672 0.131147
vt 0.786885 0.540983
vt 0.819672 0.540983
vt 0.557377 0.540983
vt 0.524590 0.131147
vt 0.524590 0.540983
vt 0.000000 0.983607
vt 0.491803 0.491803
vt 0.491803 0.983607
vt 0.754098 0.540983
vt 0.786885 0.131147
vt 0.754098 0.131147
vt 0.688525 0.540983
vt 0.655738 0.131147
vt 0.524590 0.540983
vt 0.491803 0.950820
vt 0.524590 0.950820
vt 0.000000 0.491803
vt 0.426230 0.459016
vt 0.065574 0.459016
vt 0.983607 0.131147
vt 0.918033 0.131147
vt 0.918033 0.540983
vt 0.491803 0.032787
vt 0.983607 0.000000
vt 0.491803 0.000000
vt 0.655738 0.540983
vt 0.622951 0.131147
vt 0.491803 0.540983
vt 0.852459 0.131147
vt 0.983607 0.032787
vt 0.983607 0.065574
vt 0.426230 0.426230
vt 0.459016 0.065574
vt 0.065574 0.426230
vt 0.065574 0.032787
vt 0.426230 0.065574
vt 0.426230 0.032787
vt 0.524590 0.950820
vt 0.557377 0.950820
vt 0.557377 0.131147
vt 0.622951 0.606557
vt 0.918033 0.540983
vt 0.557377 0.131147
vt 0.032787 0.032787
vt 0.000000 0.000000
vt 0.459016 0.032787
vt 0.032787 0.065574
vt 0.459016 0.426230
vt 0.065574 0.065574
vt 0.032787 0.426230
vt 0.459016 0.459016
vt 0.032787 0.459016
vt 0.491803 0.131147
s 0
usemtl chair1_Material
f 7/1/1 4/2/1 20/3/1
f 17/4/2 26/5/2 13/6/2
f 37/7/1 15/8/1 34/6/1
f 4/9/2 23/10/2 25/11/2
f 18/9/2 2/12/2 11/4/2
f 31/13/3 38/14/3 40/15/3
f 3/4/2 9/7/2 24/10/2
f 37/16/3 13/17/3 26/18/3
f 12/8/1 22/19/1 6/6/1
f 24/20/4 22/21/4 3/22/4
f 18/23/5 27/24/5 21/25/5
f 33/26/5 13/27/5 36/28/5
f 39/29/6 38/30/6 5/31/6
f 1/32/5 25/33/5 23/34/5
f 6/35/3 9/36/3 12/20/3
f 15/37/4 33/38/4 34/39/4
f 32/40/2 19/41/2 34/42/2
f 20/32/4 25/22/4 29/21/4
f 32/15/4 5/43/4 8/14/4
f 27/3/3 2/44/3 30/45/3
f 40/46/5 32/47/5 31/48/5
f 7/49/3 23/50/3 10/36/3
f 24/27/5 35/51/5 19/28/5
f 30/25/1 16/52/1 28/1/1
f 38/13/1 8/53/1 5/54/1
f 35/55/2 20/56/2 37/57/2
f 30/58/2 29/59/2 1/60/2
f 16/7/4 21/61/4 28/62/4
f 7/1/1 10/52/1 4/2/1
f 17/4/2 15/12/2 26/5/2
f 37/7/1 26/63/1 15/8/1
f 4/9/2 10/4/2 23/10/2
f 18/9/2 16/64/2 2/12/2
f 31/13/3 14/54/3 38/14/3
f 3/4/2 12/6/2 9/7/2
f 37/16/3 36/65/3 13/17/3
f 12/8/1 3/50/1 22/19/1
f 24/20/4 19/35/4 22/21/4
f 18/23/5 11/33/5 27/24/5
f 33/26/5 17/66/5 13/27/5
f 39/29/6 40/40/6 38/30/6
f 1/32/5 29/24/5 25/33/5
f 6/35/3 35/49/3 9/36/3
f 15/37/4 17/51/4 33/38/4
f 27/67/2 30/58/2 31/68/2
f 14/48/2 1/60/2 7/69/2
f 14/48/2 7/69/2 20/56/2
f 27/67/2 31/68/2 32/40/2
f 21/70/2 27/67/2 32/40/2
f 8/30/2 14/48/2 20/56/2
f 8/30/2 20/56/2 6/71/2
f 28/72/2 21/70/2 32/40/2
f 37/57/2 29/59/2 28/72/2
f 36/73/2 37/57/2 28/72/2
f 8/30/2 6/71/2 22/74/2
f 19/41/2 35/55/2 34/42/2
f 8/30/2 22/74/2 19/41/2
f 36/73/2 28/72/2 32/40/2
f 33/75/2 36/73/2 32/40/2
f 32/40/2 8/30/2 19/41/2
f 34/42/2 33/75/2 32/40/2
f 20/32/4 4/34/4 25/22/4
f 32/15/4 39/76/4 5/43/4
f 27/3/3 11/2/3 2/44/3
f 40/46/5 39/53/5 32/47/5
f 7/49/3 1/19/3 23/50/3
f 24/27/5 9/76/5 35/51/5
f 30/25/1 2/23/1 16/52/1
f 38/13/1 14/46/1 8/53/1
f 35/55/2 6/71/2 20/56/2
f 20/56/2 29/59/2 37/57/2
f 37/57/2 34/42/2 35/55/2
f 14/48/2 31/68/2 30/58/2
f 30/58/2 28/72/2 29/59/2
f 1/60/2 14/48/2 30/58/2
f 16/7/4 18/28/4 21/61/4
