# Blender 4.2.2 LTS
# www.blender.org
mtllib chair2.mtl
o chair2
v 1.100000 0.000000 0.892132
v 1.100000 0.000000 -1.707868
v 1.100000 0.000000 0.692132
v 1.100000 0.000000 -1.507868
v -1.500000 2.700000 -1.907868
v -1.300000 2.500000 -1.507868
v -1.300000 2.500000 0.892132
v -1.300000 2.500000 -1.707868
v 1.100000 3.800000 0.692132
v 1.100000 4.000000 0.692132
v 1.100000 4.600000 0.892132
v 1.100000 5.000000 0.892132
v 1.100000 5.600000 0.692132
v -1.300000 5.600000 0.892132
v -1.500000 6.000000 0.692132
v 1.300000 0.000000 0.892132
v -1.100000 2.800000 0.692132
v -1.100000 3.400000 0.892132
v -1.100000 4.600000 0.692132
v -1.100000 5.600000 0.892132
v 1.500000 5.600000 0.892132
v 1.300000 2.700000 0.492132
v -1.100000 0.000000 0.892132
v -1.100000 0.000000 -1.507868
v 0.000000 2.500000 1.092132
v 1.300000 2.500000 0.892132
v 1.500000 2.500000 1.092132
v -1.100000 2.800000 0.892132
v 1.100000 3.400000 0.892132
v 1.100000 4.000000 0.892132
v 1.100000 4.400000 0.892132
v -1.100000 4.400000 0.892132
v -1.100000 5.000000 0.892132
v 1.100000 5.600000 0.892132
v 1.300000 5.600000 0.892132
v 1.500000 6.000000 0.892132
v 1.100000 3.800000 0.892132
v -1.500000 5.600000 0.892132
v -1.100000 4.000000 0.892132
v 1.300000 2.800000 0.492132
v -1.300000 0.000000 -1.707868
v 1.300000 0.000000 0.692132
v -1.300000 0.000000 0.692132
v -1.100000 5.200000 0.692132
v 1.500000 2.700000 -1.907868
v 1.100000 2.500000 0.692132
v -1.100000 2.500000 0.692132
v 1.500000 2.500000 -1.907868
v 1.100000 2.800000 0.692132
v -1.100000 3.200000 0.692132
v -1.100000 3.400000 0.692132
v -1.100000 3.800000 0.692132
v -1.100000 4.000000 0.692132
v 1.100000 4.400000 0.692132
v -1.100000 4.400000 0.692132
v -1.100000 5.000000 0.692132
v 1.100000 5.000000 0.692132
v -1.100000 5.600000 0.692132
v 1.300000 5.600000 0.692132
v 1.500000 6.000000 0.692132
v 1.100000 3.400000 0.692132
v -1.300000 2.700000 -1.707868
v -1.300000 2.800000 -1.707868
v -1.100000 0.000000 -1.707868
v -1.100000 0.000000 0.692132
v -1.300000 2.500000 0.692132
v -1.300000 0.000000 0.892132
v 1.300000 0.000000 -1.707868
v 1.300000 0.000000 -1.507868
v -1.300000 0.000000 -1.507868
v -1.100000 2.500000 0.892132
v 1.100000 2.500000 0.892132
v 1.300000 2.500000 0.692132
v -1.500000 2.500000 1.092132
v 1.300000 2.500000 -1.707868
v -1.500000 2.500000 -1.907868
v 1.300000 2.500000 -1.507868
v 1.100000 2.500000 -1.707868
v 1.100000 2.500000 -1.507868
v -1.100000 2.500000 -1.707868
v -1.100000 3.200000 0.892132
v -1.100000 2.500000 -1.507868
v 1.100000 3.200000 0.692132
v 1.100000 3.200000 0.892132
v -1.300000 5.600000 0.692132
v -1.500000 5.600000 0.692132
v 1.500000 5.600000 0.692132
v -1.100000 3.800000 0.892132
v -1.100000 5.200000 0.892132
v 1.300000 2.700000 -1.707868
v -1.500000 2.700000 1.092132
v -1.300000 2.700000 0.892132
v -1.300000 2.700000 0.492132
v -1.300000 2.700000 0.692132
v 1.100000 2.800000 0.892132
v -1.500000 6.000000 0.892132
v 1.100000 4.600000 0.692132
v 1.100000 5.200000 0.692132
v 1.100000 5.200000 0.892132
v -1.100000 4.600000 0.892132
v 1.500000 2.700000 1.092132
v 1.300000 2.700000 0.892132
v 1.300000 2.700000 0.692132
v 1.300000 2.800000 -1.707868
v -1.300000 2.800000 0.492132
vn 1.0000 -0.0000 -0.0000
vn -0.0000 1.0000 -0.0000
vn -1.0000 -0.0000 -0.0000
vn -0.0000 -0.0000 -1.0000
vn -0.0000 -1.0000 -0.0000
vn -0.0000 -0.0000 1.0000
vt 0.840909 0.284091
vt 0.818182 0.000000
vt 0.840909 0.000000
vt 0.704545 0.329545
vt 0.681818 0.659091
vt 0.681818 0.329545
vt 0.545455 0.897727
vt 0.795455 0.920454
vt 0.545455 0.920454
vt 0.295455 0.715909
vt 0.000000 0.965909
vt 0.000000 0.715909
vt 0.636364 0.715909
vt 0.659091 0.761364
vt 0.659091 0.715909
vt 0.659091 0.693182
vt 0.659091 0.443182
vt 0.681818 0.715909
vt 0.636364 0.329545
vt 0.386364 0.329545
vt 0.681818 0.375000
vt 0.704545 0.818182
vt 0.681818 0.795455
vt 0.681818 0.818182
vt 0.818182 0.590909
vt 0.840909 0.568182
vt 0.818182 0.568182
vt 0.681818 0.329545
vt 0.704545 0.000000
vt 0.681818 0.000000
vt 0.795455 0.659091
vt 0.818182 0.613636
vt 0.818182 0.659091
vt 0.295455 0.829545
vt 0.636364 0.806818
vt 0.295455 0.806818
vt 0.795455 0.568182
vt 0.772727 0.284091
vt 0.772727 0.568182
vt 0.636364 0.784091
vt 0.295455 0.761364
vt 0.636364 0.761364
vt 0.295455 0.738636
vt 0.636364 0.738636
vt 0.295455 0.943182
vt 0.545455 0.965909
vt 0.295455 0.965909
vt 0.636364 0.056818
vt 0.659091 0.000000
vt 0.636364 0.011364
vt 0.772727 0.852273
vt 0.750000 0.568182
vt 0.750000 0.852273
vt 0.750000 0.568182
vt 0.772727 0.284091
vt 0.772727 0.568182
vt 0.818182 0.568182
vt 0.840909 0.568182
vt 0.659091 0.761364
vt 0.636364 0.806818
vt 0.636364 0.761364
vt 0.295455 0.784091
vt 0.465909 0.784091
vt 0.636364 0.715909
vt 0.295455 0.715909
vt 0.295455 0.284091
vt 0.295455 0.261364
vt 0.318182 0.329545
vt 0.545455 0.943182
vt 0.295455 0.920454
vt 0.545455 0.920454
vt 0.022727 0.693182
vt 0.022727 0.670455
vt 0.000000 0.715909
vt 0.818182 0.795454
vt 0.795455 0.818182
vt 0.818182 0.818182
vt 0.795455 0.875000
vt 0.545455 0.897727
vt 0.795455 0.897727
vt 0.840909 0.613636
vt 0.818182 0.636364
vt 0.840909 0.636364
vt 0.295455 0.397727
vt 0.340909 0.375000
vt 0.170455 0.375000
vt 0.818182 0.613636
vt 0.840909 0.590909
vt 0.750000 0.000000
vt 0.772727 0.000000
vt 0.295455 0.977273
vt 0.545455 0.965909
vt 0.295455 0.965909
vt 0.704545 0.750000
vt 0.681818 0.795455
vt 0.704545 0.795455
vt 0.795455 0.852273
vt 0.795455 0.568182
vt 0.795455 0.613636
vt 0.681818 0.704545
vt 0.704545 0.659091
vt 0.681818 0.659091
vt 0.795455 0.284091
vt 0.681818 0.704545
vt 0.704545 0.704545
vt 0.818182 0.284091
vt 0.795455 0.000000
vt 0.250000 0.988636
vt -0.000000 0.977273
vt 0.250000 0.977273
vt 0.022727 0.000000
vt 0.045455 0.147727
vt 0.045455 0.193182
vt 0.295455 0.897727
vt 0.295455 0.920454
vt 0.295455 0.420455
vt 0.045455 0.420455
vt 0.045455 0.670455
vt 0.363636 0.443182
vt 0.363636 0.420455
vt 0.704545 0.568182
vt 0.727273 0.284091
vt 0.704545 0.284091
vt 0.386364 0.193182
vt 0.386364 0.147727
vt 0.363636 0.000000
vt 0.795455 0.659091
vt 0.818182 0.704545
vt 0.795455 0.704545
vt 0.795455 0.920454
vt 0.795455 0.943182
vt 0.545455 0.829545
vt 0.295455 0.852273
vt 0.545455 0.852273
vt 0.681818 0.761364
vt 0.772727 0.000000
vt 0.727273 0.000000
vt 0.750000 0.284091
vt 0.727273 0.284091
vt 0.545455 0.863636
vt 0.840909 0.875000
vt 0.545455 0.875000
vt 0.750000 0.852273
vt 0.727273 0.568182
vt 0.295455 0.965909
vt 0.000000 0.977273
vt 0.295455 0.977273
vt 0.545455 0.875000
vt 0.295455 0.875000
vt 0.727273 0.568182
vt 0.659091 0.829545
vt 0.636364 0.806818
vt 0.636364 0.829545
vt 0.795455 0.750000
vt 0.795455 0.965909
vt 0.636364 0.147727
vt 0.659091 0.329545
vt 0.681818 0.761364
vt 0.659091 0.806818
vt 0.704545 0.852273
vt 0.727273 0.852273
vt 0.818182 0.750000
vt 0.727273 0.000000
vt 0.704545 0.659091
vt 0.795455 0.897727
vt 0.636364 0.761364
vt 0.340909 0.715909
vt 0.363636 0.693182
vt 0.659091 0.397727
vt 0.659091 0.420455
vt 0.636364 0.261364
vt 0.386364 0.261364
vt 0.636364 0.284091
vt 0.340909 0.329545
vt 0.363636 0.329545
vt 0.704545 0.795455
vt 0.840909 0.590909
vt 0.704545 0.329545
vt 0.795455 0.613636
vt 0.636364 0.829545
vt 0.386364 0.056818
vt 0.386364 0.079545
vt 0.636364 0.079545
vt 0.636364 0.125000
vt 0.295455 0.215909
vt 0.045455 0.215909
vt 0.295455 0.193182
vt 0.295455 0.079545
vt 0.045455 0.079545
vt 0.295455 0.056818
vt 0.295455 0.011364
vt 0.045455 0.011364
vt 0.318182 0.000000
vt 0.000000 0.375000
vt 0.000000 0.329545
vt 0.022727 0.329545
vt 0.045455 0.284091
vt 0.045455 0.329545
vt 0.295455 0.125000
vt 0.295455 0.147727
vt 0.295455 0.329545
vt 0.295455 0.693182
vt 0.295455 0.670455
vt 0.045455 0.693182
vt 0.318182 0.693182
vt 0.022727 0.397727
vt 0.022727 0.420455
vt 0.795455 0.795454
vt 0.318182 0.397727
vt 0.545455 0.977273
vt 0.681818 0.750000
vt 0.704545 0.704545
vt -0.000000 0.988636
vt 0.045455 0.056818
vt 0.045455 0.261364
vt 0.045455 0.125000
vt 0.318182 0.670455
vt 0.318182 0.420455
vt 0.045455 0.397727
vt 0.363636 0.397727
vt 0.386364 0.125000
vt 0.636364 0.215909
vt 0.636364 0.193182
vt 0.386364 0.215909
vt 0.386364 0.284091
vt 0.386364 0.011364
vt 0.818182 0.659091
vt 0.295455 0.829545
vt 0.681818 0.715909
vt 0.840909 0.863636
vt 0.727273 0.852273
vt 0.659091 0.806818
vt 0.681818 0.806818
vt 0.295455 0.897727
s 0
usemtl chair2_Material
f 47/1/1 23/2/1 65/3/1
f 103/4/1 35/5/1 102/6/1
f 89/7/2 98/8/2 44/9/2
f 40/10/2 63/11/2 105/12/2
f 11/13/3 57/14/3 97/15/3
f 90/16/2 22/17/2 45/18/2
f 13/19/4 58/20/4 60/21/4
f 68/22/5 4/23/5 2/24/5
f 86/25/5 14/26/5 38/27/5
f 14/28/3 94/29/3 92/30/3
f 20/31/1 44/32/1 58/33/1
f 5/34/4 48/35/4 76/36/4
f 73/37/4 3/38/4 46/39/4
f 45/40/1 27/41/1 48/42/1
f 74/43/3 5/42/3 76/44/3
f 28/45/2 49/46/2 17/47/2
f 83/48/4 103/49/4 49/50/4
f 80/51/4 41/52/4 8/53/4
f 79/54/6 69/55/6 77/56/6
f 26/57/1 42/1/1 73/58/1
f 51/59/1 88/60/1 18/61/1
f 74/62/6 25/63/6 101/35/6
f 36/64/2 15/43/2 96/65/2
f 99/66/6 12/67/6 35/68/6
f 97/69/2 100/70/2 11/71/2
f 8/72/5 6/73/5 76/74/5
f 24/75/5 41/76/5 64/77/5
f 37/78/5 52/79/5 9/80/5
f 21/81/5 59/82/5 87/83/5
f 72/84/5 27/85/5 25/86/5
f 43/87/5 23/88/5 67/25/5
f 26/55/6 1/89/6 16/90/6
f 105/91/3 62/92/3 93/93/3
f 86/94/3 96/95/3 15/96/3
f 47/97/4 43/56/4 66/51/4
f 100/98/1 56/87/1 33/99/1
f 37/100/3 61/101/3 29/102/3
f 66/57/3 67/103/3 7/37/3
f 30/104/3 54/94/3 10/105/3
f 46/106/3 1/107/3 72/103/3
f 104/108/1 22/109/1 90/110/1
f 92/111/6 39/112/6 32/113/6
f 13/9/5 20/114/5 58/115/5
f 46/116/5 47/117/5 82/118/5
f 93/119/2 91/85/2 94/120/2
f 6/121/3 41/122/3 70/123/3
f 55/124/4 53/125/4 94/126/4
f 21/127/1 60/128/1 36/129/1
f 51/69/2 29/130/2 61/131/2
f 12/132/5 56/133/5 57/134/5
f 13/135/3 99/15/3 34/14/3
f 78/38/4 68/107/4 2/136/4
f 24/137/1 80/138/1 82/139/1
f 93/140/6 40/141/6 105/142/6
f 82/143/6 70/144/6 24/54/6
f 90/145/4 63/146/4 104/147/4
f 54/148/5 32/133/5 55/149/5
f 77/150/1 68/138/1 75/54/1
f 42/151/5 1/152/5 3/153/5
f 84/154/3 49/128/3 95/129/3
f 53/46/2 30/131/2 10/155/2
f 10/156/4 59/157/4 103/49/4
f 53/158/1 32/159/1 39/59/1
f 7/160/6 23/150/6 71/161/6
f 50/75/1 28/154/1 17/162/1
f 81/149/5 83/79/5 84/148/5
f 79/123/3 2/163/3 4/29/3
f 47/1/1 71/106/1 23/2/1
f 103/4/1 59/164/1 35/5/1
f 89/7/2 99/165/2 98/8/2
f 40/10/2 104/145/2 63/11/2
f 11/13/3 12/166/3 57/14/3
f 5/167/2 91/85/2 93/119/2
f 5/167/2 93/119/2 62/168/2
f 102/169/2 101/21/2 45/18/2
f 103/170/2 102/169/2 45/18/2
f 45/18/2 5/167/2 62/168/2
f 45/18/2 62/168/2 90/16/2
f 22/17/2 103/170/2 45/18/2
f 57/171/4 56/172/4 98/173/4
f 59/157/4 57/171/4 98/173/4
f 60/21/4 87/28/4 59/157/4
f 86/174/4 15/85/4 60/21/4
f 85/175/4 86/174/4 60/21/4
f 59/157/4 98/173/4 13/19/4
f 58/20/4 85/175/4 60/21/4
f 60/21/4 59/157/4 13/19/4
f 68/22/5 69/176/5 4/23/5
f 86/25/5 85/177/5 14/26/5
f 14/28/3 85/178/3 94/29/3
f 20/31/1 89/179/1 44/32/1
f 5/34/4 45/180/4 48/35/4
f 73/37/4 42/103/4 3/38/4
f 45/40/1 101/62/1 27/41/1
f 74/43/3 91/41/3 5/42/3
f 28/45/2 95/69/2 49/46/2
f 83/48/4 50/181/4 51/182/4
f 61/183/4 9/184/4 103/49/4
f 83/48/4 51/182/4 61/183/4
f 103/49/4 94/126/4 49/50/4
f 83/48/4 61/183/4 103/49/4
f 80/51/4 64/56/4 41/52/4
f 79/54/6 4/138/6 69/55/6
f 26/57/1 16/106/1 42/1/1
f 51/59/1 52/159/1 88/60/1
f 101/35/6 91/36/6 74/62/6
f 25/63/6 27/40/6 101/35/6
f 36/64/2 60/44/2 15/43/2
f 11/185/6 100/186/6 32/113/6
f 11/185/6 32/113/6 31/187/6
f 29/188/6 18/189/6 84/190/6
f 95/191/6 28/192/6 102/193/6
f 84/190/6 95/191/6 102/193/6
f 35/68/6 21/174/6 36/85/6
f 84/190/6 102/193/6 35/68/6
f 29/188/6 84/190/6 35/68/6
f 35/68/6 36/85/6 96/194/6
f 96/194/6 38/195/6 14/196/6
f 14/196/6 89/197/6 20/198/6
f 96/194/6 14/196/6 20/198/6
f 37/199/6 29/188/6 35/68/6
f 30/200/6 37/199/6 35/68/6
f 96/194/6 20/198/6 34/201/6
f 35/68/6 96/194/6 34/201/6
f 31/187/6 30/200/6 35/68/6
f 11/185/6 31/187/6 35/68/6
f 35/68/6 34/201/6 99/66/6
f 12/67/6 11/185/6 35/68/6
f 97/69/2 19/45/2 100/70/2
f 78/202/5 79/203/5 82/118/5
f 78/202/5 82/118/5 80/204/5
f 48/167/5 75/205/5 78/202/5
f 7/206/5 74/194/5 76/74/5
f 66/207/5 7/206/5 76/74/5
f 76/74/5 48/167/5 78/202/5
f 76/74/5 78/202/5 80/204/5
f 6/73/5 66/207/5 76/74/5
f 76/74/5 80/204/5 8/72/5
f 24/75/5 70/208/5 41/76/5
f 37/78/5 88/148/5 52/79/5
f 21/81/5 35/87/5 59/82/5
f 72/84/5 26/209/5 27/85/5
f 43/87/5 65/81/5 23/88/5
f 26/55/6 72/138/6 1/89/6
f 105/91/3 63/210/3 62/92/3
f 86/94/3 38/211/3 96/95/3
f 47/97/4 65/37/4 43/56/4
f 100/98/1 19/27/1 56/87/1
f 37/100/3 9/212/3 61/101/3
f 66/57/3 43/106/3 67/103/3
f 30/104/3 31/211/3 54/94/3
f 46/106/3 3/2/3 1/107/3
f 104/108/1 40/213/1 22/109/1
f 89/197/6 14/196/6 92/111/6
f 92/111/6 102/193/6 28/192/6
f 81/214/6 84/190/6 18/189/6
f 92/111/6 28/192/6 81/214/6
f 12/67/6 99/66/6 89/197/6
f 33/215/6 12/67/6 89/197/6
f 92/111/6 81/214/6 18/189/6
f 88/216/6 37/199/6 30/200/6
f 92/111/6 18/189/6 88/216/6
f 33/215/6 89/197/6 92/111/6
f 100/186/6 33/215/6 92/111/6
f 88/216/6 30/200/6 39/112/6
f 32/113/6 100/186/6 92/111/6
f 92/111/6 88/216/6 39/112/6
f 13/9/5 34/7/5 20/114/5
f 77/217/5 75/205/5 48/167/5
f 48/167/5 27/85/5 26/209/5
f 48/167/5 26/209/5 73/218/5
f 77/217/5 48/167/5 73/218/5
f 46/116/5 72/84/5 25/86/5
f 77/217/5 73/218/5 46/116/5
f 79/203/5 77/217/5 46/116/5
f 46/116/5 25/86/5 74/194/5
f 74/194/5 7/206/5 71/219/5
f 47/117/5 66/207/5 6/73/5
f 46/116/5 74/194/5 71/219/5
f 47/117/5 6/73/5 82/118/5
f 46/116/5 71/219/5 47/117/5
f 82/118/5 79/203/5 46/116/5
f 91/85/2 101/21/2 102/169/2
f 91/85/2 102/169/2 92/220/2
f 103/170/2 22/17/2 93/119/2
f 91/85/2 92/220/2 94/120/2
f 94/120/2 103/170/2 93/119/2
f 6/121/3 8/144/3 41/122/3
f 10/156/4 103/49/4 9/184/4
f 10/156/4 9/184/4 52/221/4
f 53/125/4 10/156/4 52/221/4
f 97/222/4 57/171/4 59/157/4
f 97/222/4 59/157/4 54/223/4
f 97/222/4 54/223/4 55/124/4
f 19/224/4 97/222/4 55/124/4
f 44/225/4 98/173/4 56/172/4
f 85/175/4 58/20/4 44/225/4
f 17/226/4 49/50/4 94/126/4
f 50/181/4 17/226/4 94/126/4
f 94/126/4 85/175/4 44/225/4
f 94/126/4 44/225/4 56/172/4
f 51/182/4 50/181/4 94/126/4
f 52/221/4 51/182/4 94/126/4
f 94/126/4 56/172/4 19/224/4
f 94/126/4 19/224/4 55/124/4
f 53/125/4 52/221/4 94/126/4
f 21/127/1 87/227/1 60/128/1
f 51/69/2 18/71/2 29/130/2
f 12/132/5 33/228/5 56/133/5
f 13/135/3 98/229/3 99/15/3
f 78/38/4 75/103/4 68/107/4
f 24/137/1 64/89/1 80/138/1
f 93/140/6 22/230/6 40/141/6
f 82/143/6 6/231/6 70/144/6
f 90/145/4 62/11/4 63/146/4
f 54/148/5 31/134/5 32/133/5
f 77/150/1 69/139/1 68/138/1
f 42/151/5 16/232/5 1/152/5
f 84/154/3 83/162/3 49/128/3
f 53/46/2 39/69/2 30/131/2
f 10/156/4 54/223/4 59/157/4
f 53/158/1 55/233/1 32/159/1
f 7/160/6 67/121/6 23/150/6
f 50/75/1 81/208/1 28/154/1
f 81/149/5 50/234/5 83/79/5
f 79/123/3 78/122/3 2/163/3
