# Blender 4.2.2 LTS
# www.blender.org
mtllib chair3.mtl
o chair3
v 1.100000 2.500000 1.300000
v -1.100000 0.000000 1.300000
v 1.300000 0.000000 -1.300000
v 1.300000 0.000000 1.100000
v 1.500000 2.700000 -1.500000
v 1.300000 2.500000 -1.100000
v 1.300000 2.500000 1.300000
v 1.500000 2.500000 -1.500000
v 1.100000 0.000000 -1.100000
v 1.300000 0.000000 1.300000
v -1.300000 0.000000 1.300000
v 1.300000 0.000000 -1.100000
v -1.300000 0.000000 -1.100000
v 1.500000 2.500000 1.500000
v -1.100000 0.000000 -1.300000
v -1.100000 0.000000 1.100000
v -1.300000 0.000000 -1.300000
v -1.300000 0.000000 1.100000
v 1.100000 2.500000 -1.300000
v 1.300000 2.500000 1.100000
v -1.300000 2.500000 1.100000
v 1.300000 2.500000 -1.300000
v 1.100000 0.000000 1.300000
v 1.100000 0.000000 -1.300000
v 1.100000 0.000000 1.100000
v -1.100000 0.000000 -1.100000
v -1.300000 2.500000 1.300000
v -1.100000 2.500000 1.100000
v 1.100000 2.500000 1.100000
v -1.100000 2.500000 1.300000
v -1.500000 2.500000 1.500000
v -1.500000 2.500000 -1.500000
v -1.300000 2.500000 -1.300000
v -1.100000 2.500000 -1.300000
v 1.100000 2.500000 -1.100000
v -1.300000 2.500000 -1.100000
v -1.100000 2.500000 -1.100000
v 1.500000 2.700000 1.500000
v -1.500000 2.700000 -1.500000
v -1.500000 2.700000 1.500000
vn -1.0000 -0.0000 -0.0000
vn -0.0000 -1.0000 -0.0000
vn -0.0000 -0.0000 -1.0000
vn 1.0000 -0.0000 -0.0000
vn -0.0000 -0.0000 1.0000
vn -0.0000 1.0000 -0.0000
vt 0.918033 0.540983
vt 0.950820 0.131147
vt 0.918033 0.131147
vt 0.590164 0.606557
vt 0.557377 0.573770
vt 0.557377 0.606557
vt 0.622951 0.540983
vt 0.590164 0.131147
vt 0.590164 0.540983
vt 0.491803 0.032787
vt 0.983607 0.000000
vt 0.491803 0.000000
vt 0.557377 0.540983
vt 0.524590 0.950820
vt 0.524590 0.540983
vt 0.557377 0.540983
vt 0.524590 0.131147
vt 0.557377 0.131147
vt 0.491803 0.131147
vt 0.491803 0.540983
vt 0.819672 0.540983
vt 0.786885 0.131147
vt 0.819672 0.131147
vt 0.491803 -0.000000
vt 0.000000 -0.000000
vt 0.065574 0.032787
vt 0.852459 0.131147
vt 0.852459 0.540983
vt 0.524590 0.950820
vt 0.524590 0.540983
vt 0.000000 0.491803
vt 0.491803 0.983607
vt 0.000000 0.983607
vt 0.590164 0.573770
vt 0.622951 0.540983
vt 0.590164 0.540983
vt 0.885246 0.540983
vt 0.885246 0.540983
vt 0.885246 0.131147
vt 0.655738 0.540983
vt 0.688525 0.131147
vt 0.655738 0.131147
vt 0.491803 0.098361
vt 0.983607 0.131147
vt 0.983607 0.098361
vt 0.983607 0.065574
vt 0.721312 0.131147
vt 0.688525 0.540983
vt 0.688525 0.131147
vt 0.622951 0.606557
vt 0.590164 0.606557
vt 0.590164 0.573770
vt 0.754098 0.540983
vt 0.721312 0.131147
vt 0.754098 0.131147
vt 0.786885 0.540983
vt 0.754098 0.131147
vt 0.655738 0.131147
vt 0.622951 0.131147
vt 0.065574 0.426230
vt 0.426229 0.065574
vt 0.065574 0.065574
vt 0.491803 0.065574
vt 0.950820 0.540983
vt 0.983607 0.032787
vt 0.557377 0.950820
vt 0.459016 0.426230
vt 0.459016 0.459016
vt 0.491803 0.491803
vt 0.065574 0.459016
vt 0.032787 0.459016
vt 0.032787 0.426230
vt 0.032787 0.065574
vt 0.459016 0.065574
vt 0.459016 0.032787
vt 0.426229 0.032787
vt 0.032787 0.032787
vt 0.491803 0.950820
vt 0.622951 0.573770
vt 0.885246 0.131147
vt 0.688525 0.540983
vt 0.721312 0.540983
vt 0.590164 0.540983
vt 0.721312 0.540983
vt 0.754098 0.540983
vt 0.655738 0.540983
vt 0.426229 0.459016
vt 0.426229 0.426230
s 0
usemtl chair3_Material
f 36/1/1 17/2/1 13/3/1
f 3/4/2 9/5/2 24/6/2
f 20/7/3 25/8/3 29/9/3
f 40/10/1 32/11/1 31/12/1
f 3/13/4 6/14/4 12/15/4
f 6/16/5 9/17/5 12/18/5
f 23/19/5 7/15/5 1/20/5
f 19/16/3 3/8/3 24/18/3
f 37/21/5 13/22/5 26/23/5
f 14/24/2 31/25/2 30/26/2
f 15/27/3 33/21/3 34/28/3
f 34/29/4 26/20/4 15/30/4
f 40/31/6 5/32/6 39/33/6
f 18/34/2 2/35/2 11/36/2
f 28/37/3 18/27/3 21/28/3
f 35/38/1 24/3/1 9/39/1
f 27/40/1 18/41/1 11/42/1
f 32/43/3 5/44/3 8/45/3
f 40/43/5 14/46/5 38/45/5
f 16/47/4 30/48/4 2/49/4
f 15/50/2 13/34/2 17/51/2
f 4/52/2 23/13/2 25/5/2
f 20/53/4 10/54/4 4/55/4
f 30/56/5 11/57/5 2/22/5
f 1/7/1 25/58/1 23/59/1
f 37/60/2 29/61/2 28/62/2
f 14/10/4 5/46/4 38/63/4
f 36/1/1 33/64/1 17/2/1
f 3/4/2 12/52/2 9/5/2
f 20/7/3 4/59/3 25/8/3
f 40/10/1 39/65/1 32/11/1
f 3/13/4 22/66/4 6/14/4
f 6/16/5 35/15/5 9/17/5
f 23/19/5 10/17/5 7/15/5
f 19/16/3 22/9/3 3/8/3
f 37/21/5 36/56/5 13/22/5
f 6/67/2 22/68/2 8/69/2
f 32/31/2 34/70/2 33/71/2
f 36/72/2 28/62/2 21/73/2
f 32/31/2 33/71/2 36/72/2
f 6/67/2 8/69/2 14/24/2
f 20/74/2 6/67/2 14/24/2
f 31/25/2 32/31/2 36/72/2
f 31/25/2 36/72/2 21/73/2
f 7/75/2 20/74/2 14/24/2
f 1/76/2 7/75/2 14/24/2
f 31/25/2 21/73/2 27/77/2
f 30/26/2 1/76/2 14/24/2
f 31/25/2 27/77/2 30/26/2
f 15/27/3 17/23/3 33/21/3
f 34/29/4 37/78/4 26/20/4
f 40/31/6 38/69/6 5/32/6
f 18/34/2 16/79/2 2/35/2
f 28/37/3 16/80/3 18/27/3
f 35/38/1 19/1/1 24/3/1
f 27/40/1 21/81/1 18/41/1
f 32/43/3 39/19/3 5/44/3
f 40/43/5 31/63/5 14/46/5
f 16/47/4 28/82/4 30/48/4
f 15/50/2 26/79/2 13/34/2
f 4/52/2 10/83/2 23/13/2
f 20/53/4 7/84/4 10/54/4
f 30/56/5 27/85/5 11/57/5
f 1/7/1 29/86/1 25/58/1
f 34/70/2 32/31/2 8/69/2
f 8/69/2 22/68/2 19/87/2
f 35/88/2 6/67/2 20/74/2
f 34/70/2 8/69/2 19/87/2
f 35/88/2 20/74/2 29/61/2
f 34/70/2 19/87/2 35/88/2
f 28/62/2 36/72/2 37/60/2
f 37/60/2 34/70/2 35/88/2
f 29/61/2 1/76/2 30/26/2
f 37/60/2 35/88/2 29/61/2
f 29/61/2 30/26/2 28/62/2
f 14/10/4 8/65/4 5/46/4
