# Blender 4.2.2 LTS
# www.blender.org
mtllib closet3.mtl
o closet3
v -2.001716 0.500000 1.745904
v 0.098284 0.700000 1.845904
v 0.098284 0.700000 1.745904
v -0.301716 4.200000 1.945904
v -0.301716 4.200000 1.845904
v 0.198284 3.900000 1.945904
v 1.598284 4.000000 1.745904
v 0.098284 3.100000 0.245904
v -0.501716 5.100000 -1.554096
v -0.501716 4.900000 -1.354096
v 1.398284 4.600000 -1.354096
v 1.698284 4.700000 1.545904
v -2.001716 4.700000 1.945904
v -0.101716 4.700000 -1.554096
v -0.101716 5.100000 -1.554096
v -0.101716 5.700000 -0.254096
v -0.101716 5.800000 -0.154096
v 1.998284 0.500000 1.845904
v 1.998284 0.500000 1.745904
v 1.998284 4.400000 -2.054096
v -1.601716 1.000000 1.745904
v -1.601716 4.000000 1.745904
v -1.601716 4.000000 1.845904
v -0.201716 3.900000 1.945904
v -0.201716 3.900000 1.845904
v -0.201716 4.200000 1.945904
v 0.298284 4.200000 1.945904
v 0.398284 1.000000 1.745904
v 0.398284 4.000000 1.745904
v 0.398284 4.000000 1.845904
v 0.798284 4.600000 -1.754096
v 1.998284 4.700000 1.945904
v 0.098284 5.800000 -1.554096
v 0.098284 5.700000 -0.254096
v 0.098284 5.800000 -0.154096
v 0.098284 5.800000 -0.054096
v 1.998284 0.000000 1.845904
v -2.001716 0.500000 1.845904
v 1.898284 0.700000 1.845904
v -0.101716 0.700000 1.745904
v 1.898284 0.700000 1.745904
v -1.601716 1.000000 1.845904
v -1.901716 4.300000 1.745904
v -1.901716 4.300000 1.845904
v -2.001716 4.400000 1.745904
v -0.401716 4.000000 1.745904
v -0.401716 1.000000 1.845904
v -0.401716 4.000000 1.845904
v -0.301716 3.900000 1.845904
v -0.201716 4.200000 1.845904
v -0.101716 4.300000 1.845904
v -0.101716 4.300000 1.745904
v 0.098284 4.300000 1.745904
v 0.198284 3.900000 1.845904
v 0.098284 4.300000 1.845904
v 0.198284 4.200000 1.845904
v 0.298284 4.200000 1.845904
v 0.298284 3.900000 1.945904
v 0.198284 4.200000 1.945904
v 0.398284 1.000000 1.845904
v 0.298284 3.900000 1.845904
v -1.701716 3.200000 -1.254096
v 1.598284 1.000000 1.745904
v 1.598284 1.000000 1.845904
v 1.598284 4.000000 1.845904
v 1.898284 4.300000 1.745904
v 1.998284 4.400000 1.745904
v 0.098284 3.200000 0.045904
v 0.498284 4.900000 -1.354096
v 1.398284 4.600000 -1.754096
v 1.398284 4.700000 -1.754096
v 0.098284 4.900000 -1.354096
v 0.098284 5.100000 -1.354096
v -0.101716 5.700000 -1.354096
v 0.098284 5.900000 -0.154096
v 0.098284 5.500000 -0.054096
v -0.101716 5.100000 -1.354096
v 1.998284 0.000000 -1.954096
v 0.098284 3.200000 0.245904
v 0.298284 4.700000 -2.054096
v 0.498284 4.900000 -1.554096
v 0.798284 4.600000 -1.354096
v 1.398284 4.700000 -1.354096
v -2.001716 4.700000 -2.054096
v 1.998284 4.700000 -2.054096
v 0.098284 4.900000 -1.554096
v 0.098284 5.100000 -1.554096
v -0.101716 5.800000 -1.554096
v 0.098284 5.900000 -1.454096
v -0.101716 5.800000 -1.454096
v -0.101716 5.500000 -0.254096
v -0.101716 4.900000 -1.554096
v -2.001716 0.000000 1.845904
v -2.001716 0.000000 -1.954096
v -1.901716 0.700000 1.845904
v -1.901716 0.700000 1.745904
v -0.101716 0.700000 1.845904
v 1.998284 4.400000 -1.954096
v -2.001716 4.400000 1.945904
v -0.301716 3.900000 1.945904
v 1.998284 4.400000 1.945904
v -2.001716 4.400000 -1.954096
v -2.001716 4.400000 -2.054096
v -0.501716 4.900000 -1.554096
v 0.098284 5.500000 -0.254096
v 0.098284 5.700000 -1.354096
v -0.101716 5.500000 -0.054096
v -0.101716 4.900000 -1.354096
v -0.201716 0.500000 1.745904
v -0.401716 1.000000 1.745904
v -0.101716 3.100000 0.245904
v -0.101716 3.100000 0.045904
v 0.098284 3.100000 0.045904
v 1.898284 4.300000 1.845904
v -0.101716 3.200000 0.245904
v 1.698284 3.200000 -1.254096
v -0.101716 3.200000 0.045904
v -1.701716 3.200000 1.545904
v 1.698284 3.200000 1.545904
v 0.098284 4.700000 -1.554096
v -0.101716 4.700000 -1.354096
v 0.098284 4.700000 -1.354096
v 0.798284 4.700000 -1.354096
v 0.498284 5.100000 -1.554096
v 0.498284 5.100000 -1.354096
v -0.501716 5.100000 -1.354096
v 0.798284 4.700000 -1.754096
v -1.701716 4.700000 -1.254096
v 1.698284 4.700000 -1.254096
v -1.701716 4.700000 1.545904
v 0.098284 5.800000 -1.454096
v -0.101716 5.900000 -1.454096
v -0.101716 5.900000 -0.154096
v -0.101716 5.800000 -0.054096
vn 1.0000 -0.0000 -0.0000
vn -0.0000 -0.0000 1.0000
vn -1.0000 -0.0000 -0.0000
vn -0.0000 1.0000 -0.0000
vn -0.0000 -1.0000 -0.0000
vn -0.0000 -0.0000 -1.0000
vt 0.288889 0.770370
vt 0.281481 0.748148
vt 0.288889 0.748148
vt 0.000000 0.896296
vt 0.296296 0.933333
vt 0.000000 0.933333
vt 0.451852 0.888889
vt 0.429630 0.644444
vt 0.451852 0.666667
vt 0.281481 0.755556
vt 0.266667 0.770370
vt 0.281481 0.770370
vt 0.014815 0.325926
vt 0.296296 0.348148
vt 0.288889 0.325926
vt 0.925926 0.333333
vt 0.911111 0.340741
vt 0.911111 0.333333
vt 0.288889 0.822222
vt 0.281481 0.829630
vt 0.281481 0.822222
vt 0.281481 0.822222
vt 0.288889 0.814815
vt 0.281481 0.814815
vt 0.288889 0.718518
vt 0.281481 0.696296
vt 0.281481 0.718518
vt 0.177778 0.962963
vt 0.088889 0.970370
vt 0.088889 0.962963
vt 0.266667 0.970370
vt 0.177778 0.962963
vt 0.177778 0.970370
vt 0.266667 0.674074
vt 0.281481 0.674074
vt 0.281481 0.888889
vt 0.266667 0.866667
vt 0.281481 0.866667
vt 0.844444 0.792593
vt 0.933333 0.570370
vt 0.933333 0.792593
vt 0.385185 0.970370
vt 0.296296 0.962963
vt 0.385185 0.962963
vt 0.548148 0.881481
vt 0.548148 0.903704
vt 0.540741 0.888889
vt 0.911111 0.562963
vt 0.903704 0.296296
vt 0.911111 0.296296
vt 0.933333 0.562963
vt 0.888889 0.570370
vt 0.888889 0.562963
vt 0.237037 0.881481
vt 0.207407 0.866667
vt 0.237037 0.866667
vt 0.281481 0.792593
vt 0.288889 0.770370
vt 0.288889 0.792593
vt 0.585185 0.896296
vt 0.570370 0.881481
vt 0.585185 0.881481
vt 0.844444 0.777778
vt 0.592592 0.888889
vt 0.844444 0.888889
vt 0.592592 0.570370
vt 0.844444 0.570370
vt 0.711111 0.666667
vt 0.925926 0.311111
vt 0.911111 0.318518
vt 0.911111 0.311111
vt 0.000000 0.896296
vt 0.207407 0.785185
vt 0.000000 0.785185
vt 0.237037 0.896296
vt 0.207407 0.881481
vt 0.585185 0.866667
vt 0.592593 0.644444
vt 0.592593 0.866667
vt 0.903704 0.874074
vt 0.888889 0.881482
vt 0.888889 0.874074
vt 0.577778 0.866667
vt 0.585185 0.644444
vt 0.577778 0.644444
vt 0.311111 0.903704
vt 0.407407 0.888889
vt 0.429630 0.911111
vt 0.000000 0.785185
vt 0.251852 0.674074
vt 0.251852 0.785185
vt 0.562963 0.644444
vt 0.570370 0.911111
vt 0.562963 0.911111
vt 0.429630 0.955556
vt 0.296296 0.962963
vt 0.296296 0.955556
vt 0.918518 0.874074
vt 0.903704 0.881482
vt 0.318518 0.585185
vt 0.570370 0.585185
vt 0.503704 0.592593
vt 0.266667 0.896296
vt 0.281481 0.896296
vt 0.918518 0.859259
vt 0.888889 0.866667
vt 0.918518 0.866667
vt 0.570370 0.866667
vt 0.918518 0.251852
vt 0.933333 0.237037
vt 0.933333 0.251852
vt 0.844444 0.777778
vt 0.711111 0.681481
vt 0.725926 0.681481
vt 0.585185 0.896296
vt 0.570370 0.896296
vt 0.903704 0.562963
vt 0.896296 0.296296
vt 0.896296 0.562963
vt 0.296296 0.955555
vt 0.000000 0.962963
vt 0.888889 0.859259
vt 0.933333 0.851852
vt 0.888889 0.851852
vt 0.237037 0.800000
vt 0.251852 0.814815
vt 0.251852 0.800000
vt 0.288889 0.740741
vt 0.281481 0.718518
vt 0.288889 0.718518
vt 0.911111 0.333333
vt 0.925926 0.325926
vt 0.911111 0.325926
vt 0.814815 0.933333
vt 0.807407 0.940741
vt 0.903704 0.940741
vt 0.296296 0.948148
vt 0.592593 0.933333
vt 0.296296 0.933333
vt 0.562963 0.962963
vt 0.429630 0.955556
vt 0.429630 0.962963
vt 0.888889 0.851852
vt 0.844444 0.881482
vt 0.844444 0.851852
vt 0.940741 0.837037
vt 0.955555 0.792593
vt 0.948148 0.844444
vt 0.288889 0.696296
vt 0.281481 0.674074
vt 0.281481 0.696296
vt 0.088889 0.970370
vt 0.000000 0.970370
vt 0.918518 0.866667
vt 0.888889 0.874074
vt 0.888889 0.866667
vt 0.170370 0.955555
vt 0.570370 0.644444
vt 0.570370 0.866667
vt 0.592593 1.000000
vt 0.800000 0.888889
vt 0.800000 1.000000
vt 0.925926 0.340741
vt 0.911111 0.348148
vt 0.911111 0.340741
vt 0.548148 0.622222
vt 0.592593 0.644444
vt 0.925926 0.325926
vt 0.911111 0.318518
vt 0.911111 0.325926
vt 0.555556 0.903704
vt 0.800000 0.955556
vt 0.933333 0.962963
vt 0.800000 0.962963
vt 0.592593 0.933333
vt 0.296296 0.911111
vt 0.592593 0.911111
vt 0.281481 0.770370
vt 0.281481 0.785185
vt 0.296296 0.674074
vt 0.000000 0.348148
vt 0.000000 0.674074
vt 0.888889 0.288889
vt 0.592593 0.570370
vt 0.888889 0.570370
vt 0.933333 0.955555
vt 0.800000 0.948148
vt 0.800000 0.955555
vt 0.311111 0.325926
vt 0.311111 0.037037
vt 0.585185 0.325926
vt 0.288889 0.674074
vt 0.296296 0.896296
vt 0.288889 0.896296
vt 0.266667 0.770370
vt 0.251852 0.770370
vt 0.925926 0.311111
vt 0.911111 0.296296
vt 0.911111 0.311111
vt 0.288889 0.829630
vt 0.281481 0.837037
vt 0.281481 0.829630
vt 0.881481 0.014815
vt 0.748148 0.014815
vt 0.888889 0.000000
vt 0.888889 0.562963
vt 0.888889 0.296296
vt 0.266667 0.881481
vt 0.251852 0.896296
vt 0.266667 0.896296
vt 0.600000 0.014815
vt 0.600000 0.281481
vt 0.592593 0.288889
vt 0.281481 0.748148
vt 0.288889 0.740741
vt 0.281481 0.740741
vt 0.311111 0.881481
vt 0.296296 0.644444
vt 0.318519 0.666667
vt 0.266667 0.866667
vt 0.888889 0.222222
vt 0.977778 0.000000
vt 0.977778 0.222222
vt 0.592593 0.955555
vt 0.429630 0.955555
vt 0.296296 0.948148
vt 0.251852 0.881481
vt 0.237037 0.896296
vt 0.251852 0.896296
vt 0.281481 0.770370
vt 0.429630 0.911111
vt 0.266667 0.755556
vt 0.288889 0.000000
vt 0.007407 0.000000
vt 0.007407 0.037037
vt 0.014815 0.037037
vt 0.000000 0.325926
vt 0.000000 0.348148
vt 0.296296 0.325926
vt 0.925926 0.340741
vt 0.288889 0.829630
vt 0.288889 0.822222
vt 0.288889 0.696296
vt 0.177778 0.970370
vt 0.266667 0.962963
vt 0.266667 0.888889
vt 0.844444 0.570370
vt 0.296296 0.970370
vt 0.555556 0.881481
vt 0.540741 0.666667
vt 0.933333 0.570370
vt 0.592592 0.777778
vt 0.725926 0.666667
vt 0.592592 0.777778
vt 0.925926 0.318518
vt 0.207407 0.896296
vt 0.585185 0.644444
vt 0.585185 0.866667
vt 0.296296 0.911111
vt 0.303704 0.903704
vt 0.318519 0.888889
vt 0.000000 0.674074
vt 0.570370 0.644444
vt 0.429630 0.962963
vt 0.918518 0.881482
vt 0.437037 0.607407
vt 0.466667 0.644444
vt 0.296296 0.644444
vt 0.296296 0.348148
vt 0.318518 0.377778
vt 0.437037 0.592593
vt 0.503704 0.622222
vt 0.451852 0.607407
vt 0.451852 0.592593
vt 0.548148 0.592593
vt 0.266667 0.888889
vt 0.888889 0.859259
vt 0.585185 0.866667
vt 0.888889 0.251852
vt 0.888889 0.237037
vt 0.918518 0.237037
vt 0.918518 0.222222
vt 0.933333 0.222222
vt 0.933333 0.296296
vt 0.918518 0.296296
vt 0.962963 0.237037
vt 0.962963 0.251852
vt 0.585185 0.911111
vt 0.000000 0.955555
vt 0.933333 0.859259
vt 0.207407 0.800000
vt 0.207407 0.814815
vt 0.237037 0.814815
vt 0.251852 0.866667
vt 0.237037 0.785185
vt 0.281481 0.800000
vt 0.281481 0.740741
vt 0.925926 0.333333
vt 0.911111 0.940741
vt 0.911111 0.888889
vt 0.896296 0.888889
vt 0.896296 0.933333
vt 0.814815 0.918518
vt 0.800000 0.918518
vt 0.800000 0.940741
vt 0.807407 0.948148
vt 0.903704 0.948148
vt 0.592593 0.948148
vt 0.562963 0.955556
vt 0.888889 0.881482
vt 0.844444 0.844444
vt 0.844444 0.822222
vt 0.859259 0.822222
vt 0.859259 0.837037
vt 0.948148 0.851852
vt 0.851852 0.851852
vt 0.851852 0.844444
vt 0.940741 0.792593
vt 0.955555 0.844444
vt 0.288889 0.674074
vt 0.088889 0.962963
vt 0.918518 0.874074
vt 0.592593 0.888889
vt 0.925926 0.348148
vt 0.570370 0.377778
vt 0.592593 0.348148
vt 0.925926 0.318518
vt 0.933333 0.955556
vt 0.296296 0.933333
vt 0.296296 0.348148
vt 0.933333 0.948148
vt 0.592593 0.325926
vt 0.592593 0.348148
vt 0.296296 0.348148
vt 0.296296 0.325926
vt 0.303704 0.037037
vt 0.303704 0.000000
vt 0.585185 0.000000
vt 0.296296 0.674074
vt 0.266667 0.674074
vt 0.925926 0.296296
vt 0.288889 0.837037
vt 0.733333 0.281481
vt 0.733333 0.014815
vt 0.725926 0.000000
vt 0.748148 0.281481
vt 0.881481 0.281481
vt 0.592593 0.000000
vt 0.288889 0.748148
vt 0.303704 0.881481
vt 0.429630 0.644444
vt 0.407407 0.666667
vt 0.592593 0.948148
vt 0.296296 0.955555
s 0
usemtl closet3_Material
f 57/1/1 58/2/1 61/3/1
f 93/4/2 18/5/2 38/6/2
f 23/7/2 95/8/2 42/9/2
f 14/10/3 108/11/3 92/12/3
f 45/13/3 84/14/3 102/15/3
f 131/16/4 88/17/4 90/18/4
f 26/19/4 5/20/4 4/21/4
f 54/22/5 58/23/5 6/24/5
f 56/25/3 6/26/3 59/27/3
f 47/28/4 21/29/4 42/30/4
f 7/31/5 30/32/5 29/33/5
f 16/34/5 106/10/5 34/35/5
f 36/36/2 107/37/2 76/38/2
f 22/39/2 110/40/2 46/41/2
f 63/42/4 60/43/4 64/44/4
f 49/45/2 5/46/2 48/47/2
f 52/48/1 97/49/1 40/50/1
f 70/51/2 127/52/2 31/53/2
f 124/54/4 73/55/4 125/56/4
f 4/57/2 24/58/2 26/59/2
f 124/60/1 69/61/1 81/62/1
f 119/63/6 130/64/6 12/65/6
f 118/66/4 119/67/4 115/68/4
f 35/69/2 133/70/2 17/71/2
f 12/72/3 116/73/3 119/74/3
f 15/75/4 126/76/4 77/54/4
f 23/77/1 21/78/1 22/79/1
f 112/80/1 115/81/1 111/82/1
f 65/83/3 63/84/3 64/85/3
f 57/86/2 65/87/2 114/88/2
f 128/89/2 116/90/2 129/91/2
f 39/92/1 66/93/1 114/94/1
f 114/95/4 53/96/4 55/97/4
f 113/98/2 117/99/2 112/80/2
f 128/100/4 129/101/4 123/102/4
f 113/36/3 79/103/3 68/104/3
f 70/105/3 83/106/3 71/107/3
f 122/108/1 86/62/1 72/61/1
f 59/24/2 58/59/2 27/23/2
f 77/109/2 72/110/2 73/111/2
f 116/112/4 117/113/4 68/114/4
f 8/115/4 112/93/4 111/116/4
f 53/117/3 2/118/3 55/119/3
f 98/120/5 103/121/5 20/96/5
f 123/122/6 11/123/6 82/124/6
f 92/125/6 87/126/6 86/127/6
f 50/128/1 24/129/1 25/130/1
f 132/131/6 131/132/6 90/133/6
f 16/134/3 17/135/3 90/136/3
f 45/137/5 101/138/5 99/139/5
f 40/140/5 95/141/5 96/142/5
f 11/143/4 31/144/4 82/145/4
f 106/146/1 87/147/1 131/148/1
f 5/149/3 100/150/3 4/151/3
f 46/152/5 23/121/5 22/153/5
f 31/154/1 123/155/1 82/156/1
f 103/6/6 80/157/6 85/120/6
f 46/83/3 47/158/3 48/159/3
f 130/160/1 62/161/1 128/162/1
f 36/163/4 17/164/4 134/165/4
f 71/166/4 129/101/4 85/167/4
f 79/168/6 111/169/6 115/170/6
f 51/94/2 5/46/2 50/171/2
f 44/172/4 52/173/4 43/174/4
f 32/175/2 99/176/2 101/177/2
f 69/178/5 86/91/5 81/179/5
f 98/180/6 94/181/6 102/182/6
f 37/183/5 94/184/5 78/185/5
f 41/186/5 2/187/5 3/188/5
f 67/189/1 19/190/1 98/191/1
f 60/192/1 29/193/1 30/194/1
f 133/90/4 89/195/4 132/196/4
f 34/197/6 91/198/6 16/199/6
f 27/200/4 56/201/4 59/202/4
f 41/203/2 3/204/2 19/205/2
f 44/206/3 96/118/3 95/207/3
f 104/208/3 126/209/3 9/210/3
f 96/211/2 43/212/2 45/213/2
f 49/214/5 24/215/5 100/216/5
f 61/217/2 2/218/2 60/219/2
f 108/220/5 104/54/5 92/208/5
f 29/221/2 63/222/2 7/223/2
f 19/224/4 109/225/4 38/226/4
f 76/227/5 91/228/5 105/229/5
f 57/1/1 27/230/1 58/2/1
f 93/4/2 37/193/2 18/5/2
f 23/7/2 44/231/2 95/8/2
f 14/10/3 121/232/3 108/11/3
f 102/15/3 94/233/3 93/234/3
f 93/234/3 38/235/3 1/236/3
f 45/13/3 99/237/3 13/238/3
f 102/15/3 93/234/3 1/236/3
f 45/13/3 13/238/3 84/14/3
f 102/15/3 1/236/3 45/13/3
f 84/14/3 103/239/3 102/15/3
f 131/16/4 33/240/4 88/17/4
f 26/19/4 50/241/4 5/20/4
f 54/22/5 61/242/5 58/23/5
f 56/25/3 54/243/3 6/26/3
f 47/28/4 110/244/4 21/29/4
f 7/31/5 65/245/5 30/32/5
f 16/34/5 74/232/5 106/10/5
f 36/36/2 134/246/2 107/37/2
f 22/39/2 21/247/2 110/40/2
f 63/42/4 28/248/4 60/43/4
f 42/9/2 95/8/2 97/92/2
f 97/92/2 51/94/2 50/171/2
f 97/92/2 50/171/2 25/249/2
f 47/250/2 42/9/2 97/92/2
f 44/231/2 23/7/2 48/47/2
f 48/47/2 47/250/2 97/92/2
f 97/92/2 25/249/2 49/45/2
f 5/46/2 44/231/2 48/47/2
f 48/47/2 97/92/2 49/45/2
f 52/48/1 51/117/1 97/49/1
f 70/51/2 71/251/2 127/52/2
f 124/54/4 87/76/4 73/55/4
f 4/57/2 100/178/2 24/58/2
f 124/60/1 125/116/1 69/61/1
f 119/63/6 118/252/6 130/64/6
f 119/67/4 68/114/4 79/253/4
f 115/68/4 117/113/4 62/254/4
f 119/67/4 79/253/4 115/68/4
f 115/68/4 62/254/4 118/66/4
f 35/69/2 75/255/2 133/70/2
f 12/72/3 129/256/3 116/73/3
f 15/75/4 9/256/4 126/76/4
f 23/77/1 42/257/1 21/78/1
f 112/80/1 117/99/1 115/81/1
f 65/83/3 7/258/3 63/84/3
f 114/88/2 55/259/2 56/260/2
f 57/86/2 30/261/2 65/87/2
f 114/88/2 56/260/2 57/86/2
f 128/89/2 62/262/2 116/90/2
f 39/92/1 41/263/1 66/93/1
f 114/95/4 66/264/4 53/96/4
f 113/98/2 68/265/2 117/99/2
f 14/266/4 80/267/4 84/268/4
f 84/268/4 13/269/4 130/270/4
f 84/268/4 130/270/4 128/100/4
f 121/271/4 14/266/4 84/268/4
f 127/272/4 120/273/4 122/274/4
f 121/271/4 84/268/4 128/100/4
f 123/102/4 127/272/4 122/274/4
f 122/274/4 121/271/4 128/100/4
f 129/101/4 71/166/4 83/275/4
f 123/102/4 122/274/4 128/100/4
f 129/101/4 83/275/4 123/102/4
f 113/36/3 8/276/3 79/103/3
f 70/105/3 11/277/3 83/106/3
f 122/108/1 120/278/1 86/62/1
f 59/24/2 6/57/2 58/59/2
f 77/109/2 126/279/2 10/280/2
f 108/281/2 121/282/2 122/283/2
f 77/109/2 10/280/2 108/281/2
f 106/284/2 74/285/2 77/109/2
f 69/286/2 125/287/2 73/111/2
f 73/111/2 106/284/2 77/109/2
f 77/109/2 108/281/2 122/283/2
f 72/110/2 69/286/2 73/111/2
f 77/109/2 122/283/2 72/110/2
f 116/112/4 62/254/4 117/113/4
f 68/114/4 119/67/4 116/112/4
f 8/115/4 113/288/4 112/93/4
f 53/117/3 3/49/3 2/118/3
f 98/120/5 102/289/5 103/121/5
f 123/122/6 83/290/6 11/123/6
f 92/125/6 104/291/6 9/292/6
f 15/293/6 88/56/6 33/294/6
f 92/125/6 9/292/6 15/293/6
f 120/91/6 14/295/6 92/125/6
f 124/24/6 81/296/6 86/127/6
f 86/127/6 120/91/6 92/125/6
f 92/125/6 15/293/6 33/294/6
f 87/126/6 124/24/6 86/127/6
f 92/125/6 33/294/6 87/126/6
f 50/128/1 26/297/1 24/129/1
f 132/131/6 89/298/6 131/132/6
f 90/136/3 88/299/3 15/300/3
f 15/300/3 77/301/3 74/302/3
f 16/134/3 91/303/3 107/304/3
f 90/136/3 15/300/3 74/302/3
f 16/134/3 107/304/3 134/305/3
f 90/136/3 74/302/3 16/134/3
f 133/306/3 132/307/3 90/136/3
f 16/134/3 134/305/3 17/135/3
f 17/135/3 133/306/3 90/136/3
f 45/137/5 67/308/5 101/138/5
f 40/140/5 97/309/5 95/141/5
f 11/143/4 70/310/4 31/144/4
f 36/311/1 76/312/1 105/313/1
f 36/311/1 105/313/1 34/314/1
f 89/315/1 75/316/1 35/317/1
f 35/317/1 36/311/1 34/314/1
f 106/146/1 73/318/1 87/147/1
f 35/317/1 34/314/1 106/146/1
f 131/148/1 89/315/1 35/317/1
f 87/147/1 33/319/1 131/148/1
f 131/148/1 35/317/1 106/146/1
f 5/149/3 49/320/3 100/150/3
f 46/152/5 48/321/5 23/121/5
f 31/154/1 127/322/1 123/155/1
f 85/120/6 20/5/6 103/6/6
f 103/6/6 84/289/6 80/157/6
f 46/83/3 110/85/3 47/158/3
f 130/160/1 118/323/1 62/161/1
f 36/163/4 35/324/4 17/164/4
f 12/325/4 130/270/4 13/269/4
f 85/167/4 80/267/4 14/266/4
f 14/266/4 120/273/4 127/272/4
f 85/167/4 14/266/4 127/272/4
f 12/325/4 13/269/4 32/326/4
f 129/101/4 12/325/4 32/326/4
f 85/167/4 127/272/4 71/166/4
f 129/101/4 32/326/4 85/167/4
f 79/168/6 8/327/6 111/169/6
f 51/94/2 44/231/2 5/46/2
f 44/172/4 51/328/4 52/173/4
f 32/175/2 13/329/2 99/176/2
f 69/178/5 72/196/5 86/91/5
f 98/180/6 78/330/6 94/181/6
f 37/183/5 93/213/5 94/184/5
f 41/186/5 39/331/5 2/187/5
f 20/332/1 85/333/1 32/334/1
f 32/334/1 101/335/1 67/189/1
f 19/190/1 18/336/1 37/337/1
f 19/190/1 37/337/1 78/338/1
f 98/191/1 20/332/1 32/334/1
f 19/190/1 78/338/1 98/191/1
f 98/191/1 32/334/1 67/189/1
f 60/192/1 28/339/1 29/193/1
f 133/90/4 75/340/4 89/195/4
f 34/197/6 105/341/6 91/198/6
f 27/200/4 57/342/4 56/201/4
f 3/204/2 52/343/2 40/344/2
f 40/344/2 109/345/2 19/205/2
f 19/205/2 67/183/2 41/203/2
f 3/204/2 40/344/2 19/205/2
f 44/206/3 43/119/3 96/118/3
f 104/208/3 10/227/3 126/209/3
f 52/343/2 3/204/2 53/346/2
f 66/347/2 41/203/2 67/183/2
f 53/346/2 66/347/2 67/183/2
f 1/348/2 109/345/2 40/344/2
f 1/348/2 40/344/2 96/211/2
f 53/346/2 67/183/2 45/213/2
f 52/343/2 53/346/2 45/213/2
f 45/213/2 1/348/2 96/211/2
f 43/212/2 52/343/2 45/213/2
f 49/214/5 25/349/5 24/215/5
f 54/350/2 56/260/2 55/259/2
f 39/351/2 114/88/2 65/87/2
f 39/351/2 65/87/2 64/352/2
f 54/350/2 55/259/2 2/218/2
f 30/261/2 57/86/2 61/217/2
f 61/217/2 54/350/2 2/218/2
f 2/218/2 39/351/2 64/352/2
f 60/219/2 30/261/2 61/217/2
f 2/218/2 64/352/2 60/219/2
f 108/220/5 10/56/5 104/54/5
f 29/221/2 28/205/2 63/222/2
f 38/226/4 18/353/4 19/224/4
f 109/225/4 1/354/4 38/226/4
f 76/227/5 107/54/5 91/228/5
