# Blender 4.2.2 LTS
# www.blender.org
mtllib pot.mtl
o pot
v -0.249999 0.000000 0.749999
v -0.249999 0.000000 0.649999
v -0.549999 0.000000 0.549999
v -0.749999 0.000000 0.249999
v -0.749999 0.900000 -0.150001
v -0.749999 1.000000 0.149999
v -0.249999 1.100000 0.749999
v -0.249999 1.100000 0.649999
v -0.749999 1.100000 -0.250001
v -0.449999 1.100000 -0.650001
v -0.249999 1.100000 -0.750001
v -0.849999 1.000000 -0.150001
v -0.149999 1.100000 0.049999
v -0.049999 1.100000 0.049999
v -0.049999 1.100000 -0.050001
v 0.450001 0.000000 0.649999
v 0.650001 0.000000 -0.450001
v 0.550001 0.000000 -0.550001
v 0.250001 0.000000 -0.750001
v 0.750001 0.900000 -0.150001
v 0.750001 0.900000 0.149999
v 0.650001 1.100000 0.249999
v 0.750001 1.100000 -0.250001
v 0.550001 1.100000 -0.550001
v 0.550001 1.100000 -0.450001
v 0.850001 1.000000 -0.150001
v 0.150001 1.200000 -0.050001
v 0.150001 1.200000 0.049999
v 0.050001 1.200000 0.049999
v 0.050001 1.200000 -0.150001
v -0.649999 0.000000 0.449999
v -0.649999 0.000000 0.249999
v 0.650001 0.000000 0.249999
v 0.650001 1.100000 0.449999
v -0.749999 1.100000 0.249999
v 0.750001 1.100000 0.249999
v 0.850001 0.900000 0.149999
v 0.750001 1.000000 0.149999
v -0.149999 1.200000 0.049999
v 0.050001 1.100000 0.049999
v -0.749999 0.000000 -0.250001
v 0.750001 0.000000 -0.250001
v -0.449999 0.000000 -0.550001
v 0.450001 0.000000 -0.650001
v -0.249999 0.000000 -0.750001
v 0.450001 1.100000 -0.650001
v -0.849999 0.900000 -0.150001
v -0.749999 1.000000 -0.150001
v 0.750001 1.000000 -0.150001
v 0.850001 0.900000 -0.150001
v -0.149999 1.100000 -0.050001
v -0.149999 1.200000 -0.050001
v 0.050001 1.200000 -0.050001
v -0.049999 1.200000 -0.150001
v 0.250001 0.000000 0.649999
v 0.250001 0.000000 0.749999
v -0.449999 0.000000 0.649999
v -0.449999 0.000000 0.549999
v 0.450001 0.000000 0.549999
v 0.550001 0.000000 0.549999
v -0.549999 0.000000 0.449999
v 0.550001 0.000000 0.449999
v 0.650001 0.000000 0.449999
v 0.750001 0.000000 0.249999
v 0.650001 0.000000 -0.250001
v -0.649999 0.000000 -0.250001
v -0.649999 0.000000 -0.450001
v 0.550001 0.000000 -0.450001
v -0.549999 0.000000 -0.450001
v -0.549999 0.000000 -0.550001
v 0.450001 0.000000 -0.550001
v -0.449999 0.000000 -0.650001
v 0.250001 0.000000 -0.650001
v -0.249999 0.000000 -0.650001
v -0.849999 0.900000 0.149999
v -0.749999 0.900000 0.149999
v 0.250001 1.100000 0.749999
v 0.250001 1.100000 0.649999
v -0.449999 1.100000 0.649999
v -0.449999 1.100000 0.549999
v 0.450001 1.100000 0.649999
v 0.450001 1.100000 0.549999
v -0.549999 1.100000 0.549999
v 0.550001 1.100000 0.549999
v -0.649999 1.100000 0.449999
v -0.549999 1.100000 0.449999
v 0.550001 1.100000 0.449999
v -0.649999 1.100000 0.249999
v -0.049999 1.100000 0.149999
v 0.050001 1.100000 0.149999
v 0.150001 1.100000 0.049999
v 0.050001 1.100000 -0.050001
v 0.150001 1.100000 -0.050001
v -0.649999 1.100000 -0.250001
v -0.049999 1.100000 -0.150001
v 0.050001 1.100000 -0.150001
v 0.650001 1.100000 -0.250001
v -0.649999 1.100000 -0.450001
v 0.650001 1.100000 -0.450001
v -0.549999 1.100000 -0.450001
v -0.549999 1.100000 -0.550001
v 0.450001 1.100000 -0.550001
v -0.449999 1.100000 -0.550001
v -0.249999 1.100000 -0.650001
v 0.250001 1.100000 -0.650001
v 0.250001 1.100000 -0.750001
v -0.849999 1.000000 0.149999
v 0.850001 1.000000 0.149999
v -0.049999 1.200000 0.049999
v -0.049999 1.200000 -0.050001
v -0.049999 1.200000 0.149999
v 0.050001 1.200000 0.149999
vn -0.0000 -0.0000 -1.0000
vn -1.0000 -0.0000 -0.0000
vn -0.0000 -0.0000 1.0000
vn 1.0000 -0.0000 -0.0000
vn -0.0000 -1.0000 -0.0000
vn -0.0000 1.0000 -0.0000
vt 0.305556 0.888889
vt 0.333333 0.861111
vt 0.305556 0.861111
vt 0.861111 0.305556
vt 0.805556 0.000000
vt 0.805556 0.305556
vt 0.916667 0.305556
vt 0.944445 0.000000
vt 0.916667 0.000000
vt 0.861111 0.916667
vt 0.888889 0.611111
vt 0.888889 0.916667
vt 0.277778 0.916667
vt 0.305556 0.888889
vt 0.277778 0.888889
vt 0.750000 0.916667
vt 0.777778 0.611111
vt 0.777778 0.916667
vt 0.361111 0.888889
vt 0.333334 0.916667
vt 0.333334 0.888889
vt 0.444445 0.555556
vt 0.416667 0.611111
vt 0.555556 0.305556
vt 0.277778 0.888889
vt 0.277778 0.861111
vt 0.833333 0.611111
vt 0.861111 0.611111
vt 0.750000 0.305556
vt 0.388889 0.138889
vt 0.055556 0.333333
vt 0.277778 0.388889
vt 0.361111 0.861111
vt 0.388889 0.833333
vt 0.361111 0.833333
vt 0.694445 0.611111
vt 0.694445 0.305556
vt 0.527778 0.277778
vt 0.555556 0.305556
vt 0.555556 0.000000
vt 0.916667 0.611111
vt 0.888889 0.305556
vt 0.555556 0.916667
vt 0.583333 0.611111
vt 0.583333 0.916667
vt 0.805556 0.305556
vt 0.861111 0.305556
vt 0.694445 0.916667
vt 0.722222 0.611111
vt 0.833333 0.916667
vt 0.805556 0.611111
vt 0.805556 0.916667
vt 0.916667 0.611111
vt 0.944445 0.305556
vt 0.916667 0.305556
vt 0.694445 0.611111
vt 0.750000 0.305556
vt 0.750000 0.611111
vt 0.527778 0.916667
vt 0.500000 0.611111
vt 0.500000 0.916667
vt 0.972222 0.611111
vt 0.944445 0.916667
vt 0.972222 0.916667
vt 0.527778 0.583333
vt 0.555556 0.611111
vt 0.861111 0.305556
vt 0.916667 0.000000
vt 0.916667 0.305556
vt 0.305556 0.916667
vt 0.333333 0.888889
vt 0.361111 0.861111
vt 0.750000 0.916667
vt 0.722222 0.611111
vt 0.888889 0.611111
vt 0.888889 0.305556
vt 0.666667 0.916667
vt 0.694444 0.611111
vt 0.666667 0.611111
vt 0.694445 0.000000
vt 0.694445 0.305556
vt 0.805556 0.611111
vt 0.250000 0.888889
vt 0.222222 0.916667
vt 0.222222 0.888889
vt 0.277778 0.833333
vt 0.194445 0.861111
vt 0.277778 0.861111
vt 0.777778 0.916667
vt 0.777778 0.611111
vt 0.944445 0.305556
vt 0.972222 0.000000
vt 0.972222 0.305556
vt 0.472222 0.916667
vt 0.416667 0.916667
vt 0.638889 0.916667
vt 0.611111 0.611111
vt 0.638889 0.611111
vt 0.111111 0.916667
vt 0.138889 0.833334
vt 0.138889 0.916667
vt 0.222222 0.888889
vt 0.194445 0.916667
vt 0.194445 0.888889
vt 0.166667 0.916667
vt 0.694445 0.000000
vt 0.694445 0.305556
vt 0.416667 0.000000
vt 0.416667 0.305556
vt 0.444445 0.277778
vt 0.194445 0.916667
vt 0.166667 0.833334
vt 0.194445 0.833334
vt 0.361111 0.833333
vt 0.916667 0.916667
vt 0.277778 0.861111
vt 0.250000 0.888889
vt 0.250000 0.861111
vt 0.222222 0.666667
vt 0.250000 0.638889
vt 0.138889 0.805556
vt 0.000000 0.944445
vt 0.027778 0.916667
vt 0.000000 0.916667
vt 0.222222 0.888889
vt 0.222222 0.861111
vt 0.361111 0.888889
vt 0.388889 0.861111
vt 0.361111 0.861111
vt 0.222222 0.583333
vt 0.277778 0.444445
vt 0.333333 0.444445
vt 0.555556 0.916667
vt 0.527778 0.611111
vt 0.361111 0.916667
vt 0.388889 0.888889
vt 0.361111 0.888889
vt 0.472222 0.916667
vt 0.472222 0.611111
vt 0.638889 0.916667
vt 0.944445 0.611111
vt 0.222222 0.861111
vt 0.194445 0.888889
vt 0.083333 0.916667
vt 0.111111 0.833334
vt 0.083333 0.833334
vt 0.972222 0.305556
vt 0.055556 0.861111
vt 0.027778 0.888889
vt 0.027778 0.861111
vt 0.583333 0.916667
vt 0.611111 0.916667
vt 0.277778 0.888889
vt 0.250000 0.916667
vt 0.250000 0.888889
vt 0.861111 0.000000
vt 0.944445 0.305556
vt 0.305556 0.916667
vt 0.750000 0.611111
vt 0.361111 0.916667
vt 0.444445 0.583333
vt 0.416667 0.305556
vt 0.527778 0.555556
vt 0.750000 0.000000
vt 0.388889 0.083333
vt 0.361111 0.083333
vt 0.361111 0.055556
vt 0.333333 0.055556
vt 0.333333 0.027778
vt 0.277778 0.027778
vt 0.277778 0.000000
vt 0.138889 0.000000
vt 0.138889 0.027778
vt 0.083333 0.027778
vt 0.083333 0.055556
vt 0.416667 0.277778
vt 0.416667 0.138889
vt 0.055556 0.055556
vt 0.055556 0.083333
vt 0.027778 0.083333
vt 0.027778 0.138889
vt 0.000000 0.138889
vt 0.000000 0.277778
vt 0.027778 0.277778
vt 0.027778 0.333333
vt 0.388889 0.277778
vt 0.361111 0.333333
vt 0.388889 0.333333
vt 0.333333 0.361111
vt 0.361111 0.361111
vt 0.333333 0.388889
vt 0.138889 0.416667
vt 0.277778 0.416667
vt 0.083333 0.361111
vt 0.083333 0.388889
vt 0.138889 0.388889
vt 0.055556 0.361111
vt 0.388889 0.861111
vt 0.444445 0.250000
vt 0.527778 0.250000
vt 0.916667 0.305556
vt 0.555556 0.611111
vt 0.722222 0.916667
vt 0.694445 0.305556
vt 0.944445 0.611111
vt 0.861111 0.000000
vt 0.361111 0.888889
vt 0.722222 0.916667
vt 0.694444 0.916667
vt 0.250000 0.916667
vt 0.194445 0.833333
vt 0.805556 0.916667
vt 0.944445 0.000000
vt 0.472222 0.611111
vt 0.222222 0.916667
vt 0.277778 0.888889
vt 0.055556 0.750000
vt 0.027778 0.750000
vt 0.027778 0.694445
vt 0.000000 0.694445
vt 0.000000 0.555556
vt 0.027778 0.555556
vt 0.027778 0.500000
vt 0.055556 0.500000
vt 0.083333 0.777778
vt 0.055556 0.777778
vt 0.055556 0.472222
vt 0.083333 0.472222
vt 0.083333 0.805556
vt 0.083333 0.444445
vt 0.138889 0.444445
vt 0.277778 0.833333
vt 0.138889 0.833333
vt 0.277778 0.805556
vt 0.333333 0.777778
vt 0.333333 0.805556
vt 0.361111 0.750000
vt 0.361111 0.777778
vt 0.388889 0.694445
vt 0.388889 0.750000
vt 0.416667 0.555556
vt 0.416667 0.694445
vt 0.361111 0.500000
vt 0.388889 0.500000
vt 0.388889 0.555556
vt 0.194444 0.583333
vt 0.194444 0.611111
vt 0.166667 0.611111
vt 0.333333 0.472222
vt 0.361111 0.472222
vt 0.222222 0.611111
vt 0.250000 0.611111
vt 0.166667 0.638889
vt 0.194444 0.638889
vt 0.194444 0.666667
vt 0.222222 0.638889
vt 0.027778 0.944445
vt 0.388889 0.888889
vt 0.555556 0.611111
vt 0.388889 0.916667
vt 0.638889 0.611111
vt 0.944445 0.916667
vt 0.222222 0.888889
vt 0.083333 0.861111
vt 0.083333 0.888889
vt 0.055556 0.888889
vt 0.055556 0.916667
vt 0.027778 0.916667
vt 0.027778 0.833334
vt 0.055556 0.833334
vt 0.000000 0.888889
vt 0.000000 0.861111
vt 0.583333 0.611111
vt 0.277778 0.916667
s 0
usemtl pot_Material
f 53/1/1 93/2/1 92/3/1
f 88/4/2 31/5/2 85/6/2
f 9/7/1 66/8/1 41/9/1
f 82/10/3 60/11/3 84/12/3
f 54/13/1 96/14/1 95/15/1
f 83/16/3 58/17/3 80/18/3
f 76/19/3 107/20/3 75/21/3
f 21/22/4 36/23/4 42/24/4
f 52/25/1 15/3/1 51/26/1
f 82/10/4 16/27/4 59/28/4
f 79/29/3 2/5/3 8/6/3
f 33/30/5 69/31/5 73/32/5
f 39/33/2 51/34/2 13/35/2
f 45/24/1 106/36/1 19/37/1
f 48/38/2 9/39/2 41/40/2
f 10/41/2 43/42/2 103/11/2
f 77/43/4 55/44/4 78/45/4
f 22/28/4 63/46/4 33/47/4
f 83/48/2 61/49/2 3/36/2
f 80/50/2 57/51/2 79/52/2
f 102/53/1 18/54/1 71/55/1
f 97/56/4 17/57/4 99/58/4
f 8/59/2 1/60/2 7/61/2
f 42/62/1 97/63/1 23/64/1
f 49/65/4 42/24/4 23/66/4
f 78/67/3 16/68/3 81/69/3
f 37/21/3 38/70/3 21/1/3
f 111/71/2 14/72/2 89/2/2
f 87/73/4 60/74/4 62/58/4
f 34/75/3 62/47/3 63/76/3
f 98/77/1 69/78/1 67/79/1
f 98/29/2 66/80/2 94/81/2
f 74/46/1 10/58/1 104/82/1
f 96/83/4 53/84/4 92/85/4
f 47/86/2 107/87/2 12/88/2
f 101/89/1 43/82/1 70/90/1
f 25/91/4 18/92/4 24/93/4
f 46/94/1 73/23/1 105/95/1
f 106/96/4 73/97/4 19/98/4
f 49/99/6 108/100/6 26/101/6
f 40/102/4 112/103/4 90/104/4
f 5/105/5 75/100/5 47/101/5
f 7/39/3 56/106/3 77/107/3
f 4/108/2 35/109/2 6/110/2
f 48/111/6 107/112/6 6/113/6
f 50/114/4 108/88/4 37/86/4
f 88/115/3 4/11/3 32/53/3
f 91/116/3 29/117/3 40/118/3
f 96/119/6 93/120/6 104/121/6
f 12/122/1 5/123/1 47/124/1
f 14/118/3 39/125/3 13/126/3
f 110/127/2 95/128/2 15/129/2
f 90/130/6 78/131/6 81/132/6
f 11/133/2 74/134/2 104/59/2
f 49/135/1 50/136/1 20/137/1
f 25/138/1 17/60/1 68/139/1
f 85/140/3 61/79/3 86/77/3
f 100/115/2 70/141/2 69/53/2
f 93/142/4 28/143/4 91/87/4
f 20/144/5 37/145/5 21/146/5
f 36/62/3 33/54/3 64/147/3
f 29/148/6 110/149/6 109/150/6
f 102/151/4 44/97/4 46/152/4
f 90/153/3 111/154/3 89/155/3
f 53/1/1 27/71/1 93/2/1
f 88/4/2 32/156/2 31/5/2
f 9/7/1 94/157/1 66/8/1
f 82/10/3 59/28/3 60/11/3
f 54/13/1 30/158/1 96/14/1
f 83/16/3 3/159/3 58/17/3
f 76/19/3 6/160/3 107/20/3
f 38/161/4 23/66/4 36/23/4
f 36/23/4 64/162/4 42/24/4
f 42/24/4 20/163/4 21/22/4
f 21/22/4 38/161/4 36/23/4
f 52/25/1 110/1/1 15/3/1
f 82/10/4 81/50/4 16/27/4
f 79/29/3 57/164/3 2/5/3
f 33/30/5 63/165/5 62/166/5
f 62/166/5 60/167/5 59/168/5
f 59/168/5 16/169/5 55/170/5
f 55/170/5 56/171/5 1/172/5
f 2/173/5 57/174/5 58/175/5
f 55/170/5 1/172/5 2/173/5
f 62/166/5 59/168/5 55/170/5
f 42/176/5 64/177/5 33/30/5
f 33/30/5 62/166/5 55/170/5
f 55/170/5 2/173/5 58/175/5
f 58/175/5 3/178/5 61/179/5
f 61/179/5 31/180/5 32/181/5
f 32/181/5 4/182/5 41/183/5
f 66/184/5 67/185/5 69/31/5
f 32/181/5 41/183/5 66/184/5
f 58/175/5 61/179/5 32/181/5
f 33/30/5 55/170/5 58/175/5
f 65/186/5 42/176/5 33/30/5
f 68/187/5 17/188/5 65/186/5
f 71/189/5 18/190/5 68/187/5
f 73/32/5 44/191/5 71/189/5
f 45/192/5 19/193/5 73/32/5
f 43/194/5 72/195/5 74/196/5
f 74/196/5 45/192/5 73/32/5
f 73/32/5 71/189/5 68/187/5
f 68/187/5 65/186/5 33/30/5
f 33/30/5 58/175/5 32/181/5
f 32/181/5 66/184/5 69/31/5
f 69/31/5 70/197/5 43/194/5
f 43/194/5 74/196/5 73/32/5
f 73/32/5 68/187/5 33/30/5
f 33/30/5 32/181/5 69/31/5
f 69/31/5 43/194/5 73/32/5
f 39/33/2 52/198/2 51/34/2
f 45/24/1 11/66/1 106/36/1
f 41/40/2 4/108/2 76/199/2
f 41/40/2 76/199/2 5/200/2
f 48/38/2 35/109/2 9/39/2
f 41/40/2 5/200/2 48/38/2
f 10/41/2 72/201/2 43/42/2
f 77/43/4 56/202/4 55/44/4
f 22/28/4 34/82/4 63/46/4
f 83/48/2 86/203/2 61/49/2
f 80/50/2 58/27/2 57/51/2
f 102/53/1 24/141/1 18/54/1
f 97/56/4 65/204/4 17/57/4
f 8/59/2 2/134/2 1/60/2
f 42/62/1 65/205/1 97/63/1
f 49/65/4 20/163/4 42/24/4
f 23/66/4 38/161/4 49/65/4
f 78/67/3 55/206/3 16/68/3
f 37/21/3 108/20/3 38/70/3
f 111/71/2 109/207/2 14/72/2
f 87/73/4 84/208/4 60/74/4
f 34/75/3 87/28/3 62/47/3
f 98/77/1 100/209/1 69/78/1
f 98/29/2 67/164/2 66/80/2
f 74/46/1 72/57/1 10/58/1
f 96/83/4 30/210/4 53/84/4
f 47/86/2 75/211/2 107/87/2
f 101/89/1 103/212/1 43/82/1
f 25/91/4 68/213/4 18/92/4
f 46/94/1 44/214/1 73/23/1
f 106/96/4 105/152/4 73/97/4
f 49/99/6 38/145/6 108/100/6
f 40/102/4 29/215/4 112/103/4
f 5/105/5 76/112/5 75/100/5
f 7/39/3 1/40/3 56/106/3
f 6/110/2 76/199/2 4/108/2
f 35/109/2 48/38/2 6/110/2
f 48/111/6 12/105/6 107/112/6
f 50/114/4 26/129/4 108/88/4
f 88/115/3 35/12/3 4/11/3
f 91/116/3 28/216/3 29/117/3
f 100/217/6 98/218/6 94/219/6
f 94/219/6 9/220/6 35/221/6
f 88/222/6 85/223/6 86/224/6
f 94/219/6 35/221/6 88/222/6
f 103/225/6 101/226/6 100/217/6
f 100/217/6 94/219/6 88/222/6
f 86/224/6 83/227/6 80/228/6
f 100/217/6 88/222/6 86/224/6
f 104/121/6 10/229/6 103/225/6
f 103/225/6 100/217/6 86/224/6
f 80/228/6 79/230/6 8/231/6
f 103/225/6 86/224/6 80/228/6
f 106/232/6 11/233/6 104/121/6
f 104/121/6 103/225/6 80/228/6
f 8/231/6 7/192/6 77/193/6
f 104/121/6 80/228/6 8/231/6
f 105/234/6 106/232/6 104/121/6
f 102/235/6 46/236/6 105/234/6
f 25/237/6 24/238/6 102/235/6
f 97/239/6 99/240/6 25/237/6
f 36/241/6 23/242/6 97/239/6
f 87/243/6 34/244/6 22/245/6
f 22/245/6 36/241/6 97/239/6
f 97/239/6 25/237/6 102/235/6
f 102/235/6 105/234/6 104/121/6
f 8/231/6 77/193/6 78/131/6
f 89/246/6 14/247/6 13/248/6
f 8/231/6 78/131/6 89/246/6
f 97/239/6 102/235/6 104/121/6
f 87/243/6 22/245/6 97/239/6
f 82/249/6 84/250/6 87/243/6
f 40/251/6 90/130/6 82/249/6
f 91/252/6 40/251/6 82/249/6
f 82/249/6 87/243/6 97/239/6
f 8/231/6 89/246/6 13/248/6
f 51/253/6 15/254/6 95/255/6
f 8/231/6 13/248/6 51/253/6
f 91/252/6 82/249/6 97/239/6
f 96/119/6 92/256/6 93/120/6
f 93/120/6 91/252/6 97/239/6
f 104/121/6 8/231/6 51/253/6
f 104/121/6 51/253/6 95/255/6
f 93/120/6 97/239/6 104/121/6
f 104/121/6 95/255/6 96/119/6
f 12/122/1 48/257/1 5/123/1
f 14/118/3 109/117/3 39/125/3
f 110/127/2 54/258/2 95/128/2
f 81/132/6 82/249/6 90/130/6
f 90/130/6 89/246/6 78/131/6
f 11/133/2 45/259/2 74/134/2
f 49/135/1 26/260/1 50/136/1
f 25/138/1 99/61/1 17/60/1
f 85/140/3 31/261/3 61/79/3
f 100/115/2 101/262/2 70/141/2
f 93/142/4 27/263/4 28/143/4
f 20/144/5 50/99/5 37/145/5
f 36/62/3 22/141/3 33/54/3
f 29/148/6 28/264/6 27/265/6
f 53/266/6 30/267/6 54/268/6
f 29/148/6 27/265/6 53/266/6
f 111/269/6 112/270/6 29/148/6
f 52/271/6 39/272/6 109/150/6
f 109/150/6 111/269/6 29/148/6
f 29/148/6 53/266/6 54/268/6
f 110/149/6 52/271/6 109/150/6
f 29/148/6 54/268/6 110/149/6
f 102/151/4 71/273/4 44/97/4
f 90/153/3 112/274/3 111/154/3
