# Blender 4.2.2 LTS
# www.blender.org
mtllib small_Table.mtl
o small_Table
v -1.399999 0.000000 3.200003
v -1.499999 1.400000 3.500003
v -1.399999 1.400000 3.200003
v -1.399999 0.300000 3.200003
v -1.399999 0.300000 -3.199997
v 1.200001 1.400000 3.400003
v 1.200001 0.400000 3.200003
v 1.200001 0.400000 -3.199997
v 1.200001 0.400000 -3.399997
v 1.400001 0.000000 -3.199997
v 1.400001 0.000000 -3.399997
v -1.199999 0.400000 3.200003
v -1.199999 0.300000 3.400003
v -1.199999 0.300000 -3.199997
v -1.199999 0.000000 -3.199997
v -1.199999 0.000000 -3.399997
v -1.199999 1.400000 3.400003
v 1.400001 0.300000 3.200003
v 1.400001 0.400000 3.200003
v 1.400001 1.400000 -3.199997
v 1.200001 0.000000 3.400003
v -1.499999 1.600000 3.500003
v 1.500001 1.400000 3.500003
v 1.200001 0.300000 3.400003
v -1.399999 1.400000 3.400003
v 1.200001 0.400000 3.400003
v -1.199999 0.400000 3.400003
v 1.400001 0.300000 -3.199997
v 1.400001 0.400000 -3.199997
v -1.499999 1.600000 -3.499997
v 1.400001 0.000000 3.200003
v 1.500001 1.400000 -3.499997
v -1.499999 1.400000 -3.499997
v -1.399999 0.000000 -3.399997
v 1.200001 0.000000 -3.399997
v -1.199999 1.400000 -3.399997
v -1.399999 1.400000 -3.399997
v -1.399999 0.400000 3.200003
v -1.199999 0.300000 -3.399997
v 1.200001 0.300000 -3.399997
v 1.200001 1.400000 -3.399997
v -1.399999 0.000000 3.400003
v 1.400001 0.000000 3.400003
v 1.200001 0.000000 3.200003
v 1.400001 1.400000 -3.399997
v 1.200001 1.400000 -3.199997
v -1.199999 1.400000 -3.199997
v -1.399999 1.400000 -3.199997
v -1.399999 0.000000 -3.199997
v 1.200001 0.000000 -3.199997
v 1.400001 1.400000 3.200003
v 1.200001 1.400000 3.200003
v -1.199999 1.400000 3.200003
v 1.400001 1.400000 3.400003
v -1.199999 0.000000 3.200003
v -1.199999 0.000000 3.400003
v -1.199999 0.300000 3.200003
v 1.200001 0.300000 3.200003
v 1.200001 0.300000 -3.199997
v 1.500001 1.600000 -3.499997
v 1.500001 1.600000 3.500003
v -1.199999 0.400000 -3.399997
v -1.199999 0.400000 -3.199997
v -1.399999 0.400000 -3.199997
vn -0.0000 -1.0000 -0.0000
vn -0.0000 -0.0000 1.0000
vn -1.0000 -0.0000 -0.0000
vn 1.0000 -0.0000 -0.0000
vn -0.0000 -0.0000 -1.0000
vn -0.0000 1.0000 -0.0000
vt 0.700855 0.871795
vt 0.683761 0.854701
vt 0.683761 0.871795
vt 0.769231 0.581197
vt 0.512821 0.598291
vt 0.512821 0.581197
vt 0.803419 0.632479
vt 0.598291 0.623932
vt 0.803419 0.623932
vt 0.564103 0.623932
vt 0.017094 0.632479
vt 0.564103 0.632479
vt 0.820513 0.769231
vt 0.837607 0.683761
vt 0.837607 0.769231
vt 0.666667 0.854701
vt 0.649573 0.880342
vt 0.666667 0.880342
vt 0.854701 0.683761
vt 0.837607 0.598291
vt 0.837607 0.683761
vt 0.598291 0.837607
vt 0.000000 0.854701
vt 0.598291 0.854701
vt 0.017094 0.752137
vt 0.000000 0.837607
vt 0.017094 0.743590
vt 0.854701 0.837607
vt 0.854701 0.854701
vt 0.256410 0.000000
vt 0.512821 0.000000
vt 0.803419 0.743590
vt 0.803419 0.752137
vt 0.820513 0.717949
vt 0.888889 0.683761
vt 0.871795 0.598291
vt 0.871795 0.683761
vt 0.025641 0.008547
vt 0.230769 0.008547
vt 0.000000 0.000000
vt 0.854701 0.854701
vt 0.871795 0.769231
vt 0.871795 0.854701
vt 0.837607 0.794872
vt 0.820513 0.820513
vt 0.820513 0.794872
vt 0.837607 0.769231
vt 0.529915 0.564103
vt 0.735043 0.564103
vt 0.735043 0.017094
vt 0.598291 0.871795
vt 0.000000 0.854701
vt 0.598291 0.854701
vt 0.025641 0.572650
vt 0.008547 0.025641
vt 0.247863 0.589744
vt 0.256410 0.598291
vt 0.247863 0.572650
vt 0.854701 0.598291
vt 0.820513 0.683761
vt 0.837607 0.598291
vt 0.820513 0.598291
vt 0.230769 0.572650
vt 0.247863 0.025641
vt 0.025641 0.589744
vt 0.786325 0.598291
vt 0.769231 0.581197
vt 0.769231 0.598291
vt 0.974359 0.017094
vt 0.769231 0.564103
vt 0.769231 0.017094
vt 0.666667 0.854701
vt 0.666667 0.871795
vt 0.854701 0.769231
vt 0.837607 0.683761
vt 0.854701 0.683761
vt 0.598291 0.854701
vt 0.615385 0.880342
vt 0.598291 0.880342
vt 0.837607 0.820513
vt 0.854701 0.794872
vt 0.854701 0.820513
vt 0.871795 0.769231
vt 0.854701 0.683761
vt 0.854701 0.769231
vt 0.854701 0.769231
vt 0.837607 0.794872
vt 0.632479 0.880342
vt 0.615385 0.854701
vt 0.803419 0.598291
vt 0.786325 0.581197
vt 0.632479 0.854701
vt 0.649573 0.854701
vt 0.700855 0.854701
vt 0.769231 0.598291
vt 0.820513 0.598291
vt 0.820513 0.717949
vt 0.803419 0.717949
vt 0.598291 0.632479
vt 0.598291 0.717949
vt 0.581197 0.717949
vt 0.581197 0.598291
vt 0.598291 0.598291
vt 0.564103 0.717949
vt 0.581197 0.717949
vt 0.581197 0.598291
vt 0.564103 0.598291
vt 0.017094 0.623932
vt 0.017094 0.598291
vt 0.000000 0.598291
vt 0.000000 0.717949
vt 0.017094 0.717949
vt 0.820513 0.683761
vt 0.854701 0.598291
vt 0.581197 0.717949
vt 0.581197 0.837607
vt 0.564103 0.837607
vt 0.564103 0.752137
vt 0.564103 0.743590
vt 0.564103 0.717949
vt 0.000000 0.717949
vt 0.017094 0.717949
vt 0.017094 0.837607
vt 0.256410 0.598291
vt 0.598291 0.743590
vt 0.598291 0.717949
vt 0.581197 0.717949
vt 0.581197 0.837607
vt 0.598291 0.837607
vt 0.598291 0.752137
vt 0.803419 0.837607
vt 0.820513 0.837607
vt 0.803419 0.717949
vt 0.888889 0.598291
vt 0.008547 0.008547
vt 0.025641 0.025641
vt 0.230769 0.025641
vt 0.256410 0.000000
vt 0.837607 0.820513
vt 0.820513 0.769231
vt 0.735043 0.000000
vt 0.529915 0.000000
vt 0.529915 0.017094
vt 0.512821 0.017094
vt 0.512821 0.564103
vt 0.529915 0.581197
vt 0.735043 0.581197
vt 0.752137 0.564103
vt 0.752137 0.017094
vt 0.000000 0.871795
vt 0.008547 0.572650
vt 0.230769 0.589744
vt 0.854701 0.683761
vt 0.837607 0.683761
vt 0.008547 0.589744
vt 0.247863 0.008547
vt 0.991453 0.017094
vt 0.991453 0.564103
vt 0.974359 0.564103
vt 0.974359 0.581197
vt 0.769231 0.000000
vt 0.974359 0.000000
vt 0.752137 0.564103
vt 0.752137 0.017094
vt 0.837607 0.769231
vt 0.871795 0.683761
vt 0.837607 0.769231
vt 0.632479 0.854701
vt 0.803419 0.581197
vt 0.632479 0.880342
s 0
usemtl small_Table_Material
f 16/1/1 49/2/1 34/3/1
f 23/4/2 22/5/2 2/6/2
f 26/7/2 13/8/2 24/9/2
f 5/10/3 38/11/3 64/12/3
f 47/13/4 62/14/4 36/15/4
f 55/16/5 4/17/5 57/18/5
f 52/19/3 26/20/3 6/21/3
f 33/22/3 22/23/3 30/24/3
f 19/25/4 54/26/4 18/27/4
f 32/28/5 30/24/5 60/29/5
f 60/5/6 22/30/6 61/31/6
f 40/32/5 9/33/5 11/34/5
f 53/35/5 38/36/5 3/37/5
f 17/38/1 6/39/1 2/40/1
f 48/41/2 63/42/2 47/43/2
f 16/44/4 14/45/4 15/46/4
f 35/47/3 59/46/3 40/44/3
f 14/48/1 59/49/1 58/50/1
f 60/51/4 23/52/4 32/53/4
f 2/40/1 47/54/1 3/55/1
f 45/56/1 32/57/1 20/58/1
f 20/37/2 8/59/2 29/36/2
f 46/60/3 9/61/3 8/62/3
f 46/63/1 51/64/1 36/65/1
f 31/66/1 21/67/1 44/68/1
f 7/69/6 63/70/6 12/71/6
f 11/3/1 50/72/1 35/73/1
f 53/74/4 27/75/4 12/76/4
f 50/77/2 28/78/2 59/79/2
f 13/80/4 55/81/4 57/82/4
f 51/83/5 7/84/5 52/85/5
f 44/86/3 24/87/3 58/81/3
f 18/88/5 44/89/5 58/78/5
f 55/90/1 42/91/1 1/66/1
f 14/17/2 49/92/2 15/93/2
f 16/1/1 15/94/1 49/2/1
f 23/4/2 61/95/2 22/5/2
f 21/90/2 43/96/2 54/97/2
f 54/97/2 6/98/2 26/7/2
f 27/99/2 17/100/2 25/101/2
f 27/99/2 25/101/2 42/102/2
f 42/102/2 56/103/2 13/8/2
f 24/9/2 21/90/2 54/97/2
f 27/99/2 42/102/2 13/8/2
f 24/9/2 54/97/2 26/7/2
f 26/7/2 27/99/2 13/8/2
f 48/104/3 37/105/3 34/106/3
f 34/106/3 49/107/3 5/10/3
f 4/108/3 1/109/3 42/110/3
f 4/108/3 42/110/3 25/111/3
f 25/111/3 3/112/3 38/11/3
f 64/12/3 48/104/3 34/106/3
f 4/108/3 25/111/3 38/11/3
f 64/12/3 34/106/3 5/10/3
f 5/10/3 4/108/3 38/11/3
f 47/13/4 63/113/4 62/14/4
f 55/16/5 1/93/5 4/17/5
f 52/19/3 7/114/3 26/20/3
f 33/22/3 2/26/3 22/23/3
f 11/115/4 45/116/4 20/117/4
f 11/115/4 20/117/4 29/118/4
f 28/119/4 10/120/4 11/115/4
f 43/121/4 31/122/4 18/27/4
f 28/119/4 11/115/4 29/118/4
f 54/26/4 43/121/4 18/27/4
f 18/27/4 28/119/4 29/118/4
f 19/25/4 51/123/4 54/26/4
f 18/27/4 29/118/4 19/25/4
f 32/28/5 33/22/5 30/24/5
f 60/5/6 30/124/6 22/30/6
f 39/125/5 16/126/5 34/127/5
f 34/127/5 37/128/5 36/129/5
f 34/127/5 36/129/5 62/130/5
f 39/125/5 34/127/5 62/130/5
f 9/33/5 41/131/5 45/132/5
f 39/125/5 62/130/5 9/33/5
f 11/34/5 35/133/5 40/32/5
f 40/32/5 39/125/5 9/33/5
f 9/33/5 45/132/5 11/34/5
f 53/35/5 12/134/5 38/36/5
f 2/40/1 25/135/1 17/38/1
f 17/38/1 53/136/1 52/137/1
f 6/39/1 23/138/1 2/40/1
f 17/38/1 52/137/1 6/39/1
f 48/41/2 64/85/2 63/42/2
f 16/44/4 39/139/4 14/45/4
f 35/47/3 50/140/3 59/46/3
f 24/141/1 13/142/1 57/143/1
f 57/143/1 4/144/1 5/145/1
f 14/48/1 39/146/1 40/147/1
f 57/143/1 5/145/1 14/48/1
f 58/50/1 24/141/1 57/143/1
f 28/148/1 18/149/1 58/50/1
f 14/48/1 40/147/1 59/49/1
f 59/49/1 28/148/1 58/50/1
f 58/50/1 57/143/1 14/48/1
f 60/51/4 61/150/4 23/52/4
f 2/40/1 48/151/1 47/54/1
f 47/54/1 53/136/1 3/55/1
f 3/55/1 25/135/1 2/40/1
f 45/56/1 41/152/1 32/57/1
f 32/57/1 23/138/1 20/58/1
f 20/37/2 46/153/2 8/59/2
f 46/60/3 41/154/3 9/61/3
f 33/110/1 32/57/1 41/152/1
f 46/63/1 20/58/1 23/138/1
f 33/110/1 41/152/1 46/63/1
f 48/151/1 2/40/1 33/110/1
f 37/155/1 48/151/1 33/110/1
f 23/138/1 6/39/1 54/156/1
f 23/138/1 54/156/1 51/64/1
f 36/65/1 37/155/1 33/110/1
f 52/137/1 53/136/1 47/54/1
f 36/65/1 33/110/1 46/63/1
f 52/137/1 47/54/1 36/65/1
f 46/63/1 23/138/1 51/64/1
f 51/64/1 52/137/1 36/65/1
f 31/66/1 43/91/1 21/67/1
f 7/69/6 19/157/6 29/158/6
f 8/159/6 9/160/6 62/67/6
f 7/69/6 29/158/6 8/159/6
f 27/161/6 26/162/6 7/69/6
f 64/163/6 38/164/6 12/71/6
f 12/71/6 27/161/6 7/69/6
f 7/69/6 8/159/6 62/67/6
f 63/70/6 64/163/6 12/71/6
f 7/69/6 62/67/6 63/70/6
f 11/3/1 10/2/1 50/72/1
f 53/74/4 17/165/4 27/75/4
f 50/77/2 10/89/2 28/78/2
f 13/80/4 56/87/4 55/81/4
f 51/83/5 19/166/5 7/84/5
f 44/86/3 21/167/3 24/87/3
f 18/88/5 31/168/5 44/89/5
f 55/90/1 56/169/1 42/91/1
f 14/17/2 5/170/2 49/92/2
