# Blender 4.2.2 LTS
# www.blender.org
mtllib tv.mtl
o tv
v -3.200001 1.699984 -0.195046
v -3.500001 1.999984 0.204954
v -3.400001 1.899984 0.004954
v -3.200001 1.699984 -0.495046
v 3.499999 -2.000016 0.404954
v 3.199999 1.699984 -0.195046
v 3.399999 1.899984 0.004954
v 3.199999 1.699984 -0.495046
v -3.500001 -2.000016 0.404954
v -3.500001 1.999984 0.404954
v -3.500001 -2.000016 0.204954
v 3.399999 -1.900016 0.204954
v -3.400001 -1.900016 0.004954
v 3.299999 -1.800016 0.004954
v 3.399999 -1.900016 0.004954
v 3.299999 -1.800016 -0.195046
v -3.200001 -1.700016 -0.495046
v 3.199999 -1.700016 -0.495046
v 3.499999 1.999984 0.204954
v -3.400001 1.899984 0.204954
v 3.299999 1.799984 0.004954
v 3.399999 1.899984 0.204954
v 3.299999 1.799984 -0.195046
v -3.300001 1.799984 -0.195046
v -3.300001 1.799984 0.004954
v 3.499999 -2.000016 0.204954
v -3.400001 -1.900016 0.204954
v -3.300001 -1.800016 0.004954
v -3.300001 -1.800016 -0.195046
v -3.200001 -1.700016 -0.195046
v 3.199999 -1.700016 -0.195046
v 3.499999 1.999984 0.404954
vn -0.0000 -1.0000 -0.0000
vn -0.0000 -0.0000 1.0000
vn -0.0000 -0.0000 -1.0000
vn -1.0000 -0.0000 -0.0000
vn 1.0000 -0.0000 -0.0000
vn -0.0000 1.0000 -0.0000
vt 0.503704 0.948148
vt 0.000000 0.962963
vt 0.503704 0.962963
vt 0.518519 0.296296
vt 0.000000 0.000000
vt 0.518519 0.000000
vt 0.518519 0.933333
vt 0.000000 0.918519
vt 0.000000 0.933333
vt 0.000000 0.592593
vt 0.511111 0.585185
vt 0.007407 0.585185
vt 0.562963 0.251852
vt 0.577778 0.548148
vt 0.577778 0.251852
vt 0.962963 0.874074
vt 0.474074 0.888889
vt 0.962963 0.888889
vt 0.000000 0.296296
vt 0.511111 0.303704
vt 0.637037 0.251852
vt 0.622222 0.518519
vt 0.637037 0.518519
vt 0.496296 0.600000
vt 0.503704 0.592593
vt 0.503704 0.874074
vt 0.007407 0.866667
vt 0.000000 0.874074
vt 0.474074 0.874074
vt -0.000000 0.896296
vt 0.474074 0.896296
vt 0.540741 0.503704
vt 0.518519 0.251852
vt 0.518519 0.503704
vt 0.992593 0.859259
vt 0.985185 0.600000
vt 0.985185 0.851852
vt 0.622222 0.251852
vt 0.607407 0.533333
vt 0.607407 0.251852
vt 0.592593 0.251852
vt 0.592593 0.548148
vt 0.962963 0.911111
vt 0.474074 0.896296
vt 0.962963 0.896296
vt 0.000000 0.948148
vt 0.503704 0.859259
vt 0.511111 0.600000
vt 0.992593 0.251852
vt 0.992593 0.000000
vt 0.474074 0.918519
vt -0.000000 0.918519
vt 0.540741 0.251852
vt 0.651852 0.251852
vt 0.651852 0.518519
vt 0.607407 0.251852
vt 0.592593 0.533333
vt 0.607407 0.533333
vt 0.000000 0.977778
vt 0.503704 0.962963
vt 0.503704 0.977778
vt 0.518519 0.918519
vt 0.518519 0.592593
vt 0.562963 0.548148
vt 0.474074 0.874074
vt 0.007407 0.303704
vt 0.496296 0.866667
vt 0.007407 0.600000
vt -0.000000 0.874074
vt 0.992593 0.592593
vt 0.511111 0.851852
vt 0.622222 0.533333
vt 0.474074 0.911111
vt 0.518519 0.948148
vt 0.562963 0.503704
vt 0.000000 0.962963
s 0
usemtl tv_Material
f 12/1/1 13/2/1 15/3/1
f 32/4/2 9/5/2 5/6/2
f 26/7/1 9/8/1 11/9/1
f 2/10/3 22/11/3 20/12/3
f 9/13/4 2/14/4 11/15/4
f 14/16/1 29/17/1 16/18/1
f 26/4/3 11/19/3 12/20/3
f 29/21/4 25/22/4 24/23/4
f 14/24/3 15/25/3 13/10/3
f 7/26/3 25/27/3 3/28/3
f 31/29/1 17/30/1 18/31/1
f 4/32/4 30/33/4 1/34/4
f 23/35/3 31/36/3 6/37/3
f 15/38/5 22/39/5 12/40/5
f 32/14/5 26/41/5 19/42/5
f 23/43/6 25/44/6 21/45/6
f 32/7/6 2/46/6 10/9/6
f 29/25/3 24/47/3 30/48/3
f 17/6/3 8/49/3 18/50/3
f 1/30/6 8/51/6 4/52/6
f 18/13/5 6/32/5 31/53/5
f 21/23/5 16/54/5 23/55/5
f 13/56/4 20/57/4 3/58/4
f 3/59/6 22/60/6 7/61/6
f 12/1/1 27/46/1 13/2/1
f 32/4/2 10/19/2 9/5/2
f 26/7/1 5/62/1 9/8/1
f 2/10/3 19/63/3 22/11/3
f 20/12/3 11/19/3 2/10/3
f 9/13/4 10/64/4 2/14/4
f 14/16/1 28/65/1 29/17/1
f 12/20/3 22/11/3 19/63/3
f 11/19/3 20/12/3 27/66/3
f 12/20/3 19/63/3 26/4/3
f 11/19/3 27/66/3 12/20/3
f 29/21/4 28/38/4 25/22/4
f 14/24/3 21/67/3 7/26/3
f 13/10/3 3/28/3 25/27/3
f 13/10/3 25/27/3 28/68/3
f 14/24/3 7/26/3 15/25/3
f 13/10/3 28/68/3 14/24/3
f 7/26/3 21/67/3 25/27/3
f 31/29/1 30/69/1 17/30/1
f 4/32/4 17/53/4 30/33/4
f 23/35/3 16/70/3 31/36/3
f 6/37/3 1/71/3 23/35/3
f 15/38/5 7/72/5 22/39/5
f 32/14/5 5/15/5 26/41/5
f 23/43/6 24/73/6 25/44/6
f 32/7/6 19/74/6 2/46/6
f 30/48/3 31/36/3 16/70/3
f 24/47/3 23/35/3 1/71/3
f 30/48/3 16/70/3 29/25/3
f 24/47/3 1/71/3 30/48/3
f 17/6/3 4/33/3 8/49/3
f 1/30/6 6/31/6 8/51/6
f 18/13/5 8/75/5 6/32/5
f 21/23/5 14/21/5 16/54/5
f 13/56/4 27/41/4 20/57/4
f 3/59/6 20/76/6 22/60/6
