{
	"asset":{
		"generator":"Khronos glTF Blender I/O v4.2.69",
		"version":"2.0"
	},
	"scene":0,
	"scenes":[
		{
			"name":"Scene",
			"nodes":[
				0
			]
		}
	],
	"nodes":[
		{
			"mesh":0,
			"name":"creature"
		}
	],
	"materials":[
		{
			"doubleSided":true,
			"name":"creature_Material.002",
			"pbrMetallicRoughness":{
				"baseColorTexture":{
					"index":0
				},
				"metallicFactor":0,
				"roughnessFactor":0.5
			}
		}
	],
	"meshes":[
		{
			"name":"creature",
			"primitives":[
				{
					"attributes":{
						"POSITION":0,
						"NORMAL":1,
						"TEXCOORD_0":2,
						"COLOR_0":3,
						"COLOR_1":4
					},
					"indices":5,
					"material":0
				}
			]
		}
	],
	"textures":[
		{
			"sampler":0,
			"source":0
		}
	],
	"images":[
		{
			"mimeType":"image/png",
			"name":"creature_Tex",
			"uri":"creature_Tex.png"
		}
	],
	"accessors":[
		{
			"bufferView":0,
			"componentType":5126,
			"count":849,
			"max":[
				0.49839073419570923,
				1.406275749206543,
				0.35451361536979675
			],
			"min":[
				-0.5016092658042908,
				0.0062757134437561035,
				-0.4454863965511322
			],
			"type":"VEC3"
		},
		{
			"bufferView":1,
			"componentType":5126,
			"count":849,
			"type":"VEC3"
		},
		{
			"bufferView":2,
			"componentType":5126,
			"count":849,
			"type":"VEC2"
		},
		{
			"bufferView":3,
			"componentType":5121,
			"count":849,
			"normalized":true,
			"type":"VEC4"
		},
		{
			"bufferView":4,
			"componentType":5126,
			"count":849,
			"type":"VEC3"
		},
		{
			"bufferView":5,
			"componentType":5123,
			"count":1518,
			"type":"SCALAR"
		}
	],
	"bufferViews":[
		{
			"buffer":0,
			"byteLength":10188,
			"byteOffset":0,
			"target":34962
		},
		{
			"buffer":0,
			"byteLength":10188,
			"byteOffset":10188,
			"target":34962
		},
		{
			"buffer":0,
			"byteLength":6792,
			"byteOffset":20376,
			"target":34962
		},
		{
			"buffer":0,
			"byteLength":3396,
			"byteOffset":27168,
			"target":34962
		},
		{
			"buffer":0,
			"byteLength":10188,
			"byteOffset":30564,
			"target":34962
		},
		{
			"buffer":0,
			"byteLength":3036,
			"byteOffset":40752,
			"target":34963
		}
	],
	"samplers":[
		{
			"magFilter":9728,
			"minFilter":9984
		}
	],
	"buffers":[
		{
			"byteLength":43788,
			"uri":"creatureb.bin"
		}
	]
}
